#N canvas 148 58 944 708 10;
#X obj 59 336 expr~ fmod($v1*8 \, 1);
#X obj 56 79 expr~ $v1/60;
#X msg 144 57 \; pd dsp 1;
#X obj 144 35 t b b;
#X obj 144 12 bng 15 250 50 0 empty empty empty 17 7 0 10 -262144 -1
-1;
#X msg 55 11 \; pd dsp 0;
#X obj 59 359 s~ sig_8th;
#X obj 60 310 s~ sig_main;
#X obj 59 238 s~ count_phrase;
#X obj 60 286 s~ count_half_phrase;
#X obj 119 129 s~ freq;
#X obj 56 160 phasor~;
#X obj 56 131 *~ 0.125;
#X obj 57 185 expr~ fmod($v1*8 \, 1);
#X obj 59 215 expr~ floor($v1*4);
#X obj 59 262 expr~ floor($v1*8)%2;
#X msg 171 92 0;
#X obj 195 185 expr~ floor($v1 * 64);
#X obj 195 207 unsig~ 10;
#X floatatom 195 229 5 0 0 0 - - -, f 5;
#X obj 222 93 k_dac~;
#X obj 223 11 catch~ master;
#X obj 61 480 throw~ master;
#X obj 223 33 s~ master;
#X obj 161 429 throw~ master;
#X obj 64 657 udpsend;
#X obj 64 560 tgl 15 0 empty empty empty 17 7 0 10 -262144 -1 -1 1
1;
#X obj 64 583 sel 0 1;
#X msg 64 605 disconnect;
#X msg 84 632 connect localhost 2204;
#X obj 64 679 tgl 15 0 empty empty empty 17 7 0 10 -262144 -1 -1 0
1;
#X obj 231 649 packOSC;
#X obj 231 671 spigot;
#N canvas 134 89 557 520 osc 0;
#X obj 24 163 mtof~;
#X obj 361 34 expr~ if($v1==0 \, 5 \, 7);
#X obj 169 61 expr~ if($v1==0 \, 0 \, if($v1==1 \, 3 \, if($v1==2 \,
8 \, $v2)));
#X obj 23 115 expr~ if($v1==31 \, 7 \, $v2);
#X obj 23 34 r~ sig_main, f 13;
#X obj 169 34 r~ count_phrase;
#X obj 361 7 r~ count_half_phrase;
#X obj 138 380 outlet~;
#X obj 24 187 s~ bass_freq;
#X obj 22 67 expr~ floor($v1*8*8);
#X obj 22 88 expr~ if($v1==15 \, 10 \, $v2);
#X obj 23 140 +~ 36;
#X obj 53 330 *~;
#X obj 119 266 expr~ if($v1<$v2 \, $v1/$v2 \, ($v1-$v2)/(1-$v2));
#X obj 150 292 expr~ if($v1<$v2 \, $v1/$v2 \, abs((($v1-$v2)/(1-$v2))-1))
;
#X obj 53 307 osc~ 440;
#X obj 26 241 r~ bass_freq;
#X obj 441 267 sig~ 0.01;
#X obj 25 263 /~ 1.2;
#X obj 387 240 sig~ 0.6;
#X obj 25 284 +~;
#X obj 120 220 r~ sig_main;
#X obj 53 352 lop~ 50;
#X obj 119 242 expr~ fmod($v1 * 16 \, 1);
#X obj 119 314 expr~ pow($v1 \, 30);
#X obj 53 374 *~ 0.1;
#X obj 250 357 env~;
#X obj 250 335 bp~ 50 50;
#X floatatom 250 379 5 0 0 0 - - -, f 5;
#X floatatom 250 420 5 0 0 0 - - -, f 5;
#X obj 250 398 expr pow($f1 / 40 \, 3);
#X obj 250 439 change;
#X msg 250 466 send /bass \$1;
#X obj 250 488 s osc-sig;
#X connect 0 0 8 0;
#X connect 1 0 2 1;
#X connect 2 0 10 1;
#X connect 3 0 11 0;
#X connect 4 0 9 0;
#X connect 5 0 2 0;
#X connect 6 0 1 0;
#X connect 9 0 3 0;
#X connect 9 0 10 0;
#X connect 10 0 3 1;
#X connect 11 0 0 0;
#X connect 12 0 22 0;
#X connect 13 0 14 0;
#X connect 14 0 24 0;
#X connect 15 0 12 0;
#X connect 16 0 18 0;
#X connect 17 0 14 1;
#X connect 18 0 20 0;
#X connect 19 0 13 1;
#X connect 20 0 15 0;
#X connect 21 0 23 0;
#X connect 22 0 25 0;
#X connect 23 0 13 0;
#X connect 24 0 12 1;
#X connect 25 0 7 0;
#X connect 25 0 27 0;
#X connect 26 0 28 0;
#X connect 27 0 26 0;
#X connect 28 0 30 0;
#X connect 29 0 31 0;
#X connect 30 0 29 0;
#X connect 31 0 32 0;
#X connect 32 0 33 0;
#X restore 63 456 pd osc;
#X obj 56 106 expr~ $v1/4/8/8;
#X obj 56 53 sig~ 157;
#X obj 436 134 noise~;
#X obj 436 157 lop~ 2000;
#X obj 436 200 *~;
#X obj 502 184 tgl 15 0 empty empty empty 17 7 0 10 -262144 -1 -1 0
1;
#X obj 436 221 throw~ master;
#X obj 502 119 f;
#X obj 517 95 random 128;
#X obj 195 248 s main_count;
#X obj 502 32 r hh_count;
#X obj 502 54 change;
#X obj 502 76 bng 15 250 50 0 empty empty empty 17 7 0 10 -262144 -1
-1;
#N canvas 1038 218 818 422 ambient 0;
#N canvas 160 79 810 370 noise-gen-1 0;
#X obj 56 103 random 800;
#X obj 56 125 + 100;
#X obj 56 147 *~ 0.7;
#X obj 56 169 osc~;
#X obj 130 104 random 800;
#X obj 130 126 + 100;
#X obj 130 148 *~ 0.7;
#X obj 130 170 osc~;
#X obj 202 104 random 800;
#X obj 202 126 + 100;
#X obj 202 148 *~ 0.7;
#X obj 202 170 osc~;
#X obj 274 103 random 800;
#X obj 274 126 + 100;
#X obj 274 148 *~ 0.7;
#X obj 274 170 osc~;
#X obj 56 191 /~ 2;
#X obj 56 258 *~;
#X obj 281 229 inlet;
#X obj 153 31 inlet;
#X obj 56 280 outlet~;
#X connect 0 0 1 0;
#X connect 1 0 2 0;
#X connect 2 0 3 0;
#X connect 3 0 16 0;
#X connect 4 0 5 0;
#X connect 5 0 6 0;
#X connect 6 0 7 0;
#X connect 7 0 16 0;
#X connect 8 0 9 0;
#X connect 9 0 10 0;
#X connect 10 0 11 0;
#X connect 11 0 16 0;
#X connect 12 0 13 0;
#X connect 13 0 14 0;
#X connect 14 0 15 0;
#X connect 15 0 16 0;
#X connect 16 0 17 0;
#X connect 17 0 20 0;
#X connect 18 0 17 1;
#X connect 19 0 0 0;
#X connect 19 0 4 0;
#X connect 19 0 8 0;
#X connect 19 0 12 0;
#X restore 131 248 pd noise-gen-1;
#N canvas 926 313 450 300 noise-gen-2 0;
#X obj 87 49 inlet;
#X obj 87 71 bng 15 250 50 0 empty empty empty 17 7 0 10 -262144 -1
-1;
#X obj 87 91 random 1000;
#X obj 87 113 + 200;
#X floatatom 87 135 5 0 0 0 - - -, f 5;
#X obj 24 99 noise~;
#X obj 24 182 bp~ 0 50;
#X obj 228 72 bng 15 250 50 0 empty empty empty 17 7 0 10 -262144 -1
-1;
#X obj 228 92 random 1000;
#X obj 228 114 + 200;
#X floatatom 228 136 5 0 0 0 - - -, f 5;
#X obj 165 100 noise~;
#X obj 165 183 bp~ 0 50;
#X obj 370 72 bng 15 250 50 0 empty empty empty 17 7 0 10 -262144 -1
-1;
#X obj 370 92 random 1000;
#X obj 370 114 + 200;
#X floatatom 370 136 5 0 0 0 - - -, f 5;
#X obj 307 100 noise~;
#X obj 307 183 bp~ 0 50;
#X obj 24 230 *~;
#X obj 202 221 inlet;
#X obj 24 252 outlet~;
#X connect 0 0 1 0;
#X connect 0 0 7 0;
#X connect 0 0 13 0;
#X connect 1 0 2 0;
#X connect 2 0 3 0;
#X connect 3 0 4 0;
#X connect 4 0 6 1;
#X connect 5 0 6 0;
#X connect 6 0 19 0;
#X connect 7 0 8 0;
#X connect 8 0 9 0;
#X connect 9 0 10 0;
#X connect 10 0 12 1;
#X connect 11 0 12 0;
#X connect 12 0 19 0;
#X connect 13 0 14 0;
#X connect 14 0 15 0;
#X connect 15 0 16 0;
#X connect 16 0 18 1;
#X connect 17 0 18 0;
#X connect 18 0 19 0;
#X connect 19 0 21 0;
#X connect 20 0 19 1;
#X restore 234 314 pd noise-gen-2;
#X obj 200 218 unsig~;
#X obj 60 224 bng 15 250 50 0 empty empty empty 17 7 0 10 -262144 -1
-1;
#X obj 188 197 expr~ pow(($v1 - 0.5) \, 2) * 0.05;
#X obj 62 198 loadbang;
#X obj 185 152 r~ sig_main;
#X obj 184 174 expr~ fmod($v1 * 2 \, 1);
#X obj 247 341 *~ 20;
#X obj 277 279 unsig~;
#X obj 265 258 expr~ pow(($v1 - 0.5) \, 2) * 0.05;
#X obj 261 235 expr~ fmod($v1 * 2 + 0.2 \, 1);
#X obj 62 65 change;
#X obj 62 43 r main_count;
#X obj 62 106 random 100;
#X floatatom 131 108 5 0 0 0 - - -, f 5;
#X obj 62 87 bng 15 250 50 0 empty empty empty 17 7 0 10 -262144 -1
-1;
#X obj 62 128 expr if ($f1 > 95 \, 1 \, 0);
#X obj 62 150 sel 1;
#X obj 62 172 bng 15 250 50 0 empty empty empty 17 7 0 10 -262144 -1
-1;
#X obj 132 350 +~;
#X obj 131 397 outlet~;
#X obj 408 95 unsig~;
#X obj 395 74 expr~ pow(($v1 - 0.5) \, 2) * 0.05;
#X obj 393 29 r~ sig_main;
#N canvas 160 79 810 370 noise-gen-5 0;
#X obj 56 147 *~ 0.7;
#X obj 56 169 osc~;
#X obj 130 148 *~ 0.7;
#X obj 130 170 osc~;
#X obj 202 148 *~ 0.7;
#X obj 202 170 osc~;
#X obj 274 148 *~ 0.7;
#X obj 274 170 osc~;
#X obj 56 191 /~ 2;
#X obj 56 258 *~;
#X obj 281 229 inlet;
#X obj 153 31 inlet;
#X obj 56 280 outlet~;
#X obj 202 103 random 200;
#X obj 130 104 random 200;
#X obj 56 103 random 200;
#X obj 55 125 + 50;
#X obj 130 126 + 50;
#X obj 202 126 + 50;
#X obj 273 126 + 50;
#X obj 274 103 random 200;
#X connect 0 0 1 0;
#X connect 1 0 8 0;
#X connect 2 0 3 0;
#X connect 3 0 8 0;
#X connect 4 0 5 0;
#X connect 5 0 8 0;
#X connect 6 0 7 0;
#X connect 7 0 8 0;
#X connect 8 0 9 0;
#X connect 9 0 12 0;
#X connect 10 0 9 1;
#X connect 11 0 13 0;
#X connect 11 0 14 0;
#X connect 11 0 15 0;
#X connect 11 0 20 0;
#X connect 13 0 18 0;
#X connect 14 0 17 0;
#X connect 15 0 16 0;
#X connect 16 0 0 0;
#X connect 17 0 2 0;
#X connect 18 0 4 0;
#X connect 19 0 6 0;
#X connect 20 0 19 0;
#X restore 236 110 pd noise-gen-5;
#X obj 392 51 expr~ fmod($v1 * 4 \, 1);
#X obj 236 89 bng 15 250 50 0 empty empty empty 17 7 0 10 -262144 -1
-1;
#X obj 132 372 +~;
#X obj 237 68 sel 1;
#X obj 237 46 expr if ($f1 < 10 \, 1 \, 0);
#X obj 105 165 r noise-off;
#X connect 0 0 20 0;
#X connect 1 0 8 0;
#X connect 2 0 0 1;
#X connect 3 0 0 0;
#X connect 3 0 1 0;
#X connect 4 0 2 0;
#X connect 5 0 3 0;
#X connect 5 0 27 0;
#X connect 6 0 7 0;
#X connect 6 0 11 0;
#X connect 7 0 4 0;
#X connect 8 0 20 1;
#X connect 9 0 1 1;
#X connect 10 0 9 0;
#X connect 11 0 10 0;
#X connect 12 0 16 0;
#X connect 13 0 12 0;
#X connect 14 0 15 0;
#X connect 14 0 17 0;
#X connect 14 0 30 0;
#X connect 16 0 14 0;
#X connect 17 0 18 0;
#X connect 18 0 19 0;
#X connect 19 0 3 0;
#X connect 20 0 28 0;
#X connect 22 0 25 1;
#X connect 23 0 22 0;
#X connect 24 0 26 0;
#X connect 25 0 28 1;
#X connect 26 0 23 0;
#X connect 27 0 25 0;
#X connect 28 0 21 0;
#X connect 29 0 27 0;
#X connect 30 0 29 0;
#X connect 31 0 3 0;
#X restore 63 410 pd ambient;
#X obj 63 432 throw~ master;
#N canvas 0 22 1026 639 hh 0;
#X obj 63 48 *~;
#X obj 39 31 r~ sig_8th;
#X obj 114 177 expr~ if($v1<$v2 \, $v1/$v2 \, abs((($v1-$v2)/(1-$v2))-1))
;
#X obj 36 169 *~ 0.05;
#X obj 37 143 osc~ 2500;
#X obj 35 226 hip~ 20000;
#X obj 113 150 expr~ fmod($v1 * 128 \, 1);
#X obj 39 60 expr~ floor($v1 * 128);
#X obj 39 82 expr~ $v1 % 11 % 4;
#X obj 37 118 expr~ $v1*250 + 5000;
#X obj 121 249 expr~ pow($v1 \, $v2);
#X obj 124 204 expr~ if ($v1 == 1 \, 20 \, 4);
#X obj 268 121 expr~ if ($v1 == 2 \, 0.01 \, 0.05);
#X obj 207 54 unsig~ 1;
#X floatatom 207 76 5 0 0 0 - - -, f 5;
#X obj 120 225 expr~ if ($v1 > 100 \, $v2 \, 20);
#X obj 207 95 s hh_count;
#X obj 36 253 outlet~;
#X obj 267 152 expr~ if ($v1 > 96 \, $v2 \, 0.01);
#X connect 0 0 5 0;
#X connect 1 0 6 0;
#X connect 1 0 7 0;
#X connect 2 0 10 0;
#X connect 3 0 0 0;
#X connect 4 0 3 0;
#X connect 5 0 17 0;
#X connect 6 0 2 0;
#X connect 7 0 8 0;
#X connect 7 0 13 0;
#X connect 7 0 15 0;
#X connect 7 0 18 0;
#X connect 8 0 9 0;
#X connect 8 0 11 0;
#X connect 8 0 12 0;
#X connect 9 0 4 0;
#X connect 10 0 0 1;
#X connect 11 0 15 1;
#X connect 12 0 18 1;
#X connect 13 0 14 0;
#X connect 14 0 16 0;
#X connect 15 0 10 1;
#X connect 18 0 2 1;
#X restore 160 406 pd hh;
#X floatatom 502 141 5 0 0 0 - - -, f 5;
#X obj 502 160 expr if ($f1 > $f2 \, 1 \, 0);
#X obj 550 134 expr if ($f1 == 1 \, 64 \, 126);
#X obj 436 179 *~ 0.04;
#N canvas 443 67 1130 733 arp 0;
#X obj 50 492 *~;
#X obj 80 464 expr~ min($v1*1.5 \, 1);
#X obj 80 383 expr~ fmod($v1*3 \, 1);
#X obj 50 609 *~;
#X obj 85 553 expr~ abs(($v1%3)-2);
#X obj 85 580 expr~ 0.5+(pow(($v1/2) \, 4)*0.5);
#X obj 50 465 osc~;
#X obj 50 318 +~;
#X obj 94 284 osc~;
#X obj 94 311 *~;
#X floatatom 128 228 5 0 0 0 - - -, f 5;
#X obj 245 469 expr~ if($v1==0 \, 3 \, if($v1==1 \, 5 \, if($v1==2
\, 4 \, 7)));
#X obj 49 211 mtof~;
#X obj 119 92 expr~ if($v1==0 \, 7 \, if($v1==1 \, 3 \, if($v1==2 \,
8 \, 7)));
#X obj 65 162 expr~ if($v1==0 \, 0 \, if($v1==1 \, $v2 \, $v3));
#X obj 155 125 expr~ if($v1==0 \, 12 \, if($v1==1 \, 10 \, if($v1==2
\, 12 \, $v2)));
#X obj 353 62 expr~ if($v1==0 \, 12 \, 11);
#X obj 49 238 *~ 2;
#X obj 50 31 r~ sig_8th;
#X obj 352 9 r~ sig_main, f 13;
#X obj 119 65 r~ count_phrase;
#X obj 39 695 outlet~;
#X obj 394 298 expr~ if($v1<$v2 \, abs(pow(abs(($v1/$v2)-1) \, $v3)-1)
\, abs(pow(($v1-$V2)/(1-$v2) \, $v4)-1));
#X obj 543 261 sig~ 0.05;
#X obj 670 265 expr~ if($v1==0 \, 8 \, 2);
#X obj 618 265 sig~ 4;
#X obj 224 401 expr~ $v2+(sin($v1*3.1415*2)*($v2*0.9));
#X floatatom 213 252 5 0 0 0 - - -, f 5;
#X obj 94 257 *~ 0.5;
#X obj 186 290 *~ 10;
#X obj 245 496 expr~ if($v1==1 \, 7 \, 5);
#X obj 48 184 +~ 48;
#X obj 245 442 expr~ floor($v1*16)%4;
#X obj 352 36 expr~ floor($v1*8)%2;
#X obj 80 356 expr~ fmod($v1*64 \, 1);
#X obj 85 526 expr~ floor($v1*4*72)%$v2;
#X obj 80 437 expr~ pow($v1 \, 16);
#X obj 289 218 expr~ fmod($v1*32 \, 1);
#X obj 483 197 expr~ floor($v1*32)%2;
#X obj 50 636 *~ 0.04;
#X connect 0 0 3 0;
#X connect 1 0 0 1;
#X connect 2 0 22 0;
#X connect 3 0 39 0;
#X connect 4 0 5 0;
#X connect 4 0 14 0;
#X connect 5 0 3 1;
#X connect 6 0 0 0;
#X connect 7 0 6 0;
#X connect 8 0 9 0;
#X connect 9 0 7 1;
#X connect 10 0 28 1;
#X connect 11 0 30 0;
#X connect 12 0 17 0;
#X connect 12 0 29 0;
#X connect 13 0 14 1;
#X connect 14 0 31 0;
#X connect 15 0 14 2;
#X connect 16 0 15 1;
#X connect 17 0 7 0;
#X connect 17 0 28 0;
#X connect 18 0 34 0;
#X connect 18 0 35 0;
#X connect 19 0 33 0;
#X connect 19 0 37 0;
#X connect 19 0 38 0;
#X connect 20 0 13 0;
#X connect 20 0 15 0;
#X connect 22 0 36 0;
#X connect 23 0 22 1;
#X connect 24 0 22 3;
#X connect 25 0 22 2;
#X connect 26 0 9 1;
#X connect 27 0 29 1;
#X connect 28 0 8 0;
#X connect 29 0 26 1;
#X connect 30 0 35 1;
#X connect 31 0 12 0;
#X connect 32 0 11 0;
#X connect 33 0 16 0;
#X connect 34 0 2 0;
#X connect 35 0 4 0;
#X connect 36 0 1 0;
#X connect 37 0 26 0;
#X connect 38 0 24 0;
#X connect 39 0 21 0;
#X restore 434 468 pd arp;
#X obj 434 517 throw~ master;
#X obj 481 475 tgl 15 0 empty empty empty 17 7 0 10 -262144 -1 -1 0
1;
#X obj 481 410 f;
#X obj 496 386 random 128;
#X obj 481 323 r hh_count;
#X obj 481 345 change;
#X obj 481 367 bng 15 250 50 0 empty empty empty 17 7 0 10 -262144
-1 -1;
#X floatatom 481 432 5 0 0 0 - - -, f 5;
#X obj 481 451 expr if ($f1 > $f2 \, 1 \, 0);
#X obj 434 490 *~;
#X obj 529 425 expr if ($f1 == 1 \, 30 \, 120);
#X obj 528 205 sel 1;
#X msg 528 250 send /ns 1;
#X msg 556 227 send /ns 0;
#X msg 636 599 send /arp 0;
#X msg 608 622 send /arp 1;
#X obj 231 566 r osc-sig;
#X obj 679 650 s osc-sig;
#X obj 244 628 print;
#X obj 633 510 change;
#X obj 528 275 s osc-sig;
#X obj 528 185 change;
#X obj 335 598 udpreceive 2205;
#X obj 444 638 spigot;
#X obj 454 608 tgl 15 0 empty empty empty 17 7 0 10 -262144 -1 -1 0
1;
#X obj 244 606 spigot;
#X obj 263 583 tgl 15 0 empty empty empty 17 7 0 10 -262144 -1 -1 0
1;
#X obj 335 621 unpackOSC;
#X obj 335 643 route /connect;
#X obj 335 665 sel 1;
#X msg 335 687 1;
#X msg 432 543 send /tick \$1;
#X obj 588 514 sel 1;
#X obj 633 533 sel 0;
#X obj 444 660 print;
#X obj 643 256 f;
#X obj 643 213 bng 15 250 50 0 /ns empty empty 17 7 0 10 -262144 -1
-1;
#X obj 658 232 random 100;
#X floatatom 643 278 5 0 0 0 - - -, f 5;
#X obj 643 345 s noise-off;
#X msg 727 344 send /octa 1;
#X obj 727 370 s osc-sig;
#X obj 643 319 sel 1;
#X obj 643 296 expr if ($f1 < 20 \, 1 \, 0);
#X connect 0 0 6 0;
#X connect 1 0 34 0;
#X connect 3 0 2 0;
#X connect 3 1 16 0;
#X connect 4 0 3 0;
#X connect 5 0 13 0;
#X connect 11 0 13 0;
#X connect 11 0 17 0;
#X connect 12 0 11 0;
#X connect 13 0 7 0;
#X connect 13 0 0 0;
#X connect 13 0 14 0;
#X connect 13 0 15 0;
#X connect 14 0 8 0;
#X connect 15 0 9 0;
#X connect 16 0 11 1;
#X connect 17 0 18 0;
#X connect 18 0 19 0;
#X connect 19 0 43 0;
#X connect 21 0 20 0;
#X connect 21 0 20 1;
#X connect 21 0 23 0;
#X connect 25 0 30 0;
#X connect 26 0 27 0;
#X connect 27 0 28 0;
#X connect 27 1 29 0;
#X connect 28 0 25 0;
#X connect 29 0 25 0;
#X connect 30 0 32 1;
#X connect 31 0 32 0;
#X connect 32 0 25 0;
#X connect 33 0 22 0;
#X connect 34 0 10 0;
#X connect 34 0 12 0;
#X connect 35 0 1 0;
#X connect 36 0 37 0;
#X connect 37 0 53 0;
#X connect 38 0 40 0;
#X connect 39 0 38 1;
#X connect 39 0 52 0;
#X connect 39 0 76 0;
#X connect 41 0 50 0;
#X connect 42 0 41 1;
#X connect 44 0 45 0;
#X connect 45 0 46 0;
#X connect 46 0 41 0;
#X connect 46 0 42 0;
#X connect 47 0 48 0;
#X connect 49 0 24 0;
#X connect 50 0 51 0;
#X connect 51 0 39 0;
#X connect 52 0 51 1;
#X connect 53 0 38 0;
#X connect 54 0 64 0;
#X connect 56 0 64 1;
#X connect 56 0 65 0;
#X connect 56 0 74 0;
#X connect 56 0 87 0;
#X connect 57 0 62 0;
#X connect 58 0 57 1;
#X connect 59 0 60 0;
#X connect 60 0 61 0;
#X connect 60 0 86 0;
#X connect 61 0 57 0;
#X connect 61 0 58 0;
#X connect 62 0 63 0;
#X connect 63 0 56 0;
#X connect 64 0 55 0;
#X connect 65 0 63 1;
#X connect 66 0 67 0;
#X connect 66 1 68 0;
#X connect 66 1 91 0;
#X connect 67 0 75 0;
#X connect 68 0 75 0;
#X connect 69 0 72 0;
#X connect 70 0 72 0;
#X connect 71 0 31 0;
#X connect 71 0 80 0;
#X connect 74 0 88 0;
#X connect 76 0 66 0;
#X connect 77 0 82 0;
#X connect 78 0 89 0;
#X connect 79 0 78 1;
#X connect 80 0 73 0;
#X connect 81 0 80 1;
#X connect 82 0 83 0;
#X connect 82 0 78 0;
#X connect 83 0 84 0;
#X connect 84 0 85 0;
#X connect 85 0 26 0;
#X connect 86 0 72 0;
#X connect 87 0 70 0;
#X connect 88 0 69 0;
#X connect 90 0 93 0;
#X connect 91 0 90 0;
#X connect 91 0 92 0;
#X connect 92 0 90 1;
#X connect 93 0 98 0;
#X connect 95 0 96 0;
#X connect 97 0 94 0;
#X connect 97 0 95 0;
#X connect 98 0 97 0;
