#N canvas 1202 84 705 867 10;
#N canvas 149 168 826 750 bass 0;
#X obj 23 194 mtof~;
#X obj 22 476 *~;
#X obj 23 580 *~;
#X obj 22 409 osc~;
#X obj 361 34 expr~ if($v1==0 \, 5 \, 7);
#X obj 169 61 expr~ if($v1==0 \, 0 \, if($v1==1 \, 3 \, if($v1==2 \,
8 \, $v2)));
#X obj 34 256 osc~;
#X obj 34 288 *~;
#X obj 23 346 +~;
#X obj 23 115 expr~ if($v1==31 \, 7 \, $v2);
#X obj 96 258 osc~;
#X obj 96 285 *~;
#X obj 126 449 expr~ min($v1*$v2 \, 1);
#X obj 165 288 expr~ min($v1*$v2 \, 1);
#X obj 245 203 expr~ min($v1*1.5 \, 1);
#X obj 210 179 expr~ fmod($v1-0.25 \, 1);
#X obj 227 417 expr~ if($v1==4 \, 2 \, 2);
#X obj 309 266 expr~ if($v1==4 \, 2 \, 2);
#X obj 432 230 expr~ if($v1==2 \, 8 \, 8);
#X obj 330 364 expr~ if($v1<$v2 \, $v1/$v2 \, ($v1-$V2)/(1-$v2));
#X obj 489 546 expr~ if($v1<$v2 \, 0 \, 1);
#X floatatom 545 291 5 0 0 0 - - -, f 5;
#X obj 23 34 r~ sig_main, f 13;
#X obj 432 179 r~ sig_8th;
#X obj 169 34 r~ count_phrase;
#X obj 361 7 r~ count_half_phrase;
#X obj 23 644 outlet~;
#X obj 571 255 s~ bass_freq;
#X obj 198 247 expr~ pow($v1 \, 2)*500;
#X obj 166 315 expr~ pow($v1 \, 2)*50;
#X obj 97 231 *~ 2;
#X obj 46 230 *~ 0.5;
#X obj 23 615 *~ 0.15;
#X obj 311 533 expr~ floor($v1*4)%2;
#X obj 22 67 expr~ floor($v1*8*8);
#X obj 432 199 expr~ floor($v1*4);
#X obj 22 88 expr~ if($v1==15 \, 10 \, $v2);
#X obj 225 597 sig~ 1;
#X obj 117 632 expr~ if ($v1 == 0 \, $v2 \, $v3);
#X obj 112 575 tgl 15 0 empty empty empty 17 7 0 10 -262144 -1 -1 0
1;
#X obj 113 596 sig~;
#X obj 120 478 sig~ 1;
#X obj 71 507 expr~ if ($v1 == 0 \, $v2 \, $v3);
#X obj 67 460 tgl 15 0 empty empty empty 17 7 0 10 -262144 -1 -1 0
1;
#X obj 67 480 sig~;
#X obj 122 145 expr~ if($v1<$v2 \, abs(pow(abs(($v1/$v2)-1) \, $v3)-1)
\, abs(pow(($v1-$v2)/(1-$v2) \, $v4)-1));
#X obj 356 107 sig~ 2;
#X obj 294 106 sig~ 16;
#X obj 621 518 sig~ 0.6;
#X floatatom 631 483 5 0 0 0 - - -, f 5;
#X obj 298 564 expr~ if($v1==1&&$v2==0 \, 0 \, 1);
#X obj 298 586 lop~ 20;
#X obj 220 104 sig~ 0.5;
#X obj 313 326 expr~ fmod($v1*4 \, 1);
#X obj 553 315 sig~ 0.6;
#X obj 24 152 +~ 36;
#X connect 0 0 8 0;
#X connect 0 0 27 0;
#X connect 0 0 30 0;
#X connect 0 0 31 0;
#X connect 1 0 2 0;
#X connect 2 0 32 0;
#X connect 3 0 1 0;
#X connect 4 0 5 1;
#X connect 5 0 36 1;
#X connect 6 0 7 0;
#X connect 7 0 8 1;
#X connect 8 0 3 0;
#X connect 9 0 55 0;
#X connect 10 0 11 0;
#X connect 11 0 8 1;
#X connect 12 0 42 2;
#X connect 13 0 29 0;
#X connect 14 0 28 0;
#X connect 15 0 14 0;
#X connect 16 0 12 1;
#X connect 17 0 13 1;
#X connect 18 0 16 0;
#X connect 18 0 17 0;
#X connect 19 0 12 0;
#X connect 19 0 45 0;
#X connect 20 0 50 1;
#X connect 21 0 54 0;
#X connect 22 0 34 0;
#X connect 23 0 33 0;
#X connect 23 0 35 0;
#X connect 23 0 53 0;
#X connect 24 0 5 0;
#X connect 25 0 4 0;
#X connect 28 0 11 1;
#X connect 29 0 7 1;
#X connect 30 0 10 0;
#X connect 31 0 6 0;
#X connect 32 0 26 0;
#X connect 33 0 50 0;
#X connect 34 0 9 0;
#X connect 34 0 36 0;
#X connect 35 0 18 0;
#X connect 36 0 9 1;
#X connect 37 0 38 1;
#X connect 38 0 2 1;
#X connect 39 0 40 0;
#X connect 40 0 38 0;
#X connect 41 0 42 1;
#X connect 42 0 1 1;
#X connect 43 0 44 0;
#X connect 44 0 42 0;
#X connect 45 0 13 0;
#X connect 45 0 15 0;
#X connect 46 0 45 3;
#X connect 47 0 45 2;
#X connect 48 0 20 1;
#X connect 49 0 48 0;
#X connect 50 0 51 0;
#X connect 51 0 38 2;
#X connect 52 0 45 1;
#X connect 53 0 19 0;
#X connect 53 0 20 0;
#X connect 54 0 19 1;
#X connect 55 0 0 0;
#X restore 54 355 pd bass;
#X obj 58 233 expr~ fmod($v1*8 \, 1);
#X obj 56 79 expr~ $v1/60;
#X obj 56 106 expr~ $v1/4/8;
#X msg 357 80 \; pd dsp 1;
#X obj 329 48 t b b;
#X obj 269 40 bng 15 250 50 0 empty empty empty 17 7 0 10 -262144 -1
-1;
#X msg 263 80 \; pd dsp 0;
#X obj 58 258 s~ sig_8th;
#X obj 196 221 s~ sig_main;
#X obj 196 269 s~ count_phrase;
#X obj 345 248 s~ count_half_phrase;
#X obj 204 180 s~ freq;
#X obj 56 160 phasor~;
#X obj 56 131 *~ 0.125;
#X obj 57 185 expr~ fmod($v1*8 \, 1);
#X obj 196 246 expr~ floor($v1*4);
#X obj 345 221 expr~ floor($v1*8)%2;
#X obj 59 13 hsl 128 15 0 127 0 0 empty empty empty -2 -8 0 10 -262144
-1 -1 0 1;
#X msg 328 81 0;
#X obj 59 278 expr~ floor($v1 * 64);
#X obj 59 300 unsig~ 10;
#X floatatom 59 322 5 0 0 0 - - -, f 5;
#X obj 484 115 syn-rain;
#X obj 57 528 k_dac~;
#X obj 484 227 *~;
#X obj 54 380 *~ 0.05;
#X obj 238 358 r~ sig_8th;
#X obj 154 501 *~;
#X obj 56 472 catch~ master;
#X obj 484 252 throw~ master;
#X obj 153 570 throw~ master;
#X obj 153 527 *~ 0.05;
#X obj 238 404 expr~ if($v1<$v2 \, $v1/$v2 \, ($v1-$v2)/(1-$v2));
#X obj 238 430 expr~ if($v1<$v2 \, $v1/$v2 \, abs((($v1-$v2)/(1-$v2))-1))
;
#X obj 154 478 osc~ 440;
#X obj 54 431 throw~ master;
#X obj 154 430 r~ bass_freq;
#X obj 505 378 sig~ 0.8;
#X obj 559 405 sig~ 0.01;
#X obj 237 452 expr~ pow($v1 \, 7);
#X obj 154 452 /~ 1.5;
#X obj 107 380 tgl 15 0 empty empty empty 17 7 0 10 -262144 -1 -1 0
1;
#X obj 54 405 *~;
#X obj 237 380 expr~ fmod($v1 * 5 \, 1);
#X obj 563 202 expr~ pow($v1 \, 2);
#X obj 563 180 osc~ 0.005;
#X obj 484 179 *~ 0.1;
#X obj 56 53 sig~ 30;
#X obj 56 33 + 30;
#X obj 56 494 s~ master;
#X obj 246 633 throw~ master;
#X obj 246 584 *~;
#X obj 326 505 r~ sig_8th;
#X obj 325 554 expr~ if($v1<$v2 \, $v1/$v2 \, abs((($v1-$v2)/(1-$v2))-1))
;
#X obj 646 529 sig~ 0.01;
#X floatatom 450 681 5 0 0 0 - - -, f 5;
#X obj 457 583 tgl 15 0 empty empty empty 17 7 0 10 -262144 -1 -1 0
1;
#X obj 451 633 random 100;
#X obj 246 606 *~;
#X obj 451 607 metro 1;
#X obj 60 716 env~;
#X floatatom 60 748 5 0 0 0 - - -, f 5;
#X obj 60 643 r~ master;
#X obj 141 689 env~;
#X obj 219 816 udpsend;
#X obj 324 527 expr~ fmod($v1 * 64 \, 1);
#X obj 450 653 expr pow($f1/100 \, 3);
#X obj 246 549 *~ 0.05;
#X obj 246 524 phasor~ 100;
#X obj 325 577 expr~ pow($v1 \, 10);
#X obj 219 703 tgl 15 0 empty empty empty 17 7 0 10 -262144 -1 -1 0
1;
#X obj 219 742 sel 0 1;
#X msg 219 764 disconnect;
#X msg 239 791 connect localhost 2204;
#X obj 219 838 tgl 15 0 empty empty empty 17 7 0 10 -262144 -1 -1 0
1;
#X obj 384 766 packOSC;
#X obj 384 788 spigot;
#X msg 384 745 send /test \$1;
#X obj 141 667 bp~ 50 50;
#X obj 60 666 bp~ 5000 50;
#X floatatom 141 711 5 0 0 0 - - -, f 5;
#X floatatom 141 752 5 0 0 0 - - -, f 5;
#X obj 141 730 expr pow(($f1 - 20) / 30 \, 3);
#X connect 0 0 26 0;
#X connect 1 0 8 0;
#X connect 2 0 3 0;
#X connect 3 0 12 0;
#X connect 3 0 14 0;
#X connect 5 0 4 0;
#X connect 5 1 19 0;
#X connect 6 0 5 0;
#X connect 7 0 15 0;
#X connect 13 0 15 0;
#X connect 13 0 20 0;
#X connect 14 0 13 0;
#X connect 15 0 9 0;
#X connect 15 0 1 0;
#X connect 15 0 16 0;
#X connect 15 0 17 0;
#X connect 16 0 10 0;
#X connect 17 0 11 0;
#X connect 18 0 49 0;
#X connect 19 0 13 1;
#X connect 20 0 21 0;
#X connect 21 0 22 0;
#X connect 23 0 47 0;
#X connect 25 0 30 0;
#X connect 26 0 43 0;
#X connect 27 0 44 0;
#X connect 28 0 32 0;
#X connect 29 0 24 0;
#X connect 29 0 24 1;
#X connect 29 0 50 0;
#X connect 32 0 31 0;
#X connect 32 0 79 0;
#X connect 33 0 34 0;
#X connect 34 0 40 0;
#X connect 35 0 28 0;
#X connect 37 0 41 0;
#X connect 38 0 33 1;
#X connect 39 0 34 1;
#X connect 40 0 28 1;
#X connect 41 0 35 0;
#X connect 42 0 43 1;
#X connect 43 0 36 0;
#X connect 44 0 33 0;
#X connect 45 0 25 1;
#X connect 46 0 45 0;
#X connect 47 0 25 0;
#X connect 48 0 2 0;
#X connect 49 0 48 0;
#X connect 52 0 59 0;
#X connect 53 0 66 0;
#X connect 54 0 70 0;
#X connect 55 0 54 1;
#X connect 56 0 59 1;
#X connect 57 0 60 0;
#X connect 58 0 67 0;
#X connect 59 0 51 0;
#X connect 60 0 58 0;
#X connect 61 0 62 0;
#X connect 63 0 80 0;
#X connect 64 0 81 0;
#X connect 65 0 75 0;
#X connect 66 0 54 0;
#X connect 67 0 56 0;
#X connect 68 0 52 0;
#X connect 69 0 68 0;
#X connect 70 0 52 1;
#X connect 71 0 72 0;
#X connect 72 0 73 0;
#X connect 72 1 74 0;
#X connect 73 0 65 0;
#X connect 74 0 65 0;
#X connect 75 0 77 1;
#X connect 76 0 77 0;
#X connect 77 0 65 0;
#X connect 78 0 76 0;
#X connect 79 0 64 0;
#X connect 80 0 61 0;
#X connect 81 0 83 0;
#X connect 82 0 78 0;
#X connect 83 0 82 0;
