#N canvas 16 128 1443 669 10;
#X msg 31 28 \; pd dsp 0;
#X obj 189 48 k_dac~;
#X obj 189 23 catch~ master;
#X obj 189 103 s~ master;
#N canvas 614 192 557 520 osc 0;
#X obj 24 163 mtof~;
#X obj 23 34 r~ sig_main, f 13;
#X obj 169 34 r~ count_phrase;
#X obj 361 7 r~ count_half_phrase;
#X obj 138 427 outlet~;
#X obj 24 187 s~ bass_freq;
#X obj 22 67 expr~ floor($v1*8*8);
#X obj 23 140 +~ 36;
#X obj 53 330 *~;
#X obj 119 266 expr~ if($v1<$v2 \, $v1/$v2 \, ($v1-$v2)/(1-$v2));
#X obj 150 292 expr~ if($v1<$v2 \, $v1/$v2 \, abs((($v1-$v2)/(1-$v2))-1))
;
#X obj 53 307 osc~ 440;
#X obj 26 241 r~ bass_freq;
#X obj 441 267 sig~ 0.01;
#X obj 25 263 /~ 1.2;
#X obj 387 240 sig~ 0.6;
#X obj 25 284 +~;
#X obj 120 220 r~ sig_main;
#X obj 53 352 lop~ 50;
#X obj 119 242 expr~ fmod($v1 * 16 \, 1);
#X obj 53 374 *~ 0.1;
#X obj 250 357 env~;
#X obj 250 335 bp~ 50 50;
#X floatatom 250 379 5 0 0 0 - - -, f 5;
#X floatatom 250 420 5 0 0 0 - - -, f 5;
#X obj 250 398 expr pow($f1 / 40 \, 3);
#X obj 250 439 change;
#X msg 250 466 send /bass \$1;
#X obj 250 488 s osc-sig;
#X obj 53 396 *~ 3;
#X obj 119 314 expr~ pow($v1 \, 30) * 2.5;
#X obj 22 88 expr~ if($v1==15 \, 2 \, $v2);
#X obj 169 61 expr~ if($v1==0 \, 0 \, if($v1==1 \, 3 \, if($v1==2 \,
4 \, $v2)));
#X obj 361 34 expr~ if($v1==0 \, 2 \, 3);
#X obj 23 115 expr~ if($v1==31 \, 4 \, $v2);
#X connect 0 0 5 0;
#X connect 1 0 6 0;
#X connect 2 0 32 0;
#X connect 3 0 33 0;
#X connect 6 0 31 0;
#X connect 6 0 34 0;
#X connect 7 0 0 0;
#X connect 8 0 18 0;
#X connect 9 0 10 0;
#X connect 10 0 30 0;
#X connect 11 0 8 0;
#X connect 12 0 14 0;
#X connect 13 0 10 1;
#X connect 14 0 16 0;
#X connect 15 0 9 1;
#X connect 16 0 11 0;
#X connect 17 0 19 0;
#X connect 18 0 20 0;
#X connect 19 0 9 0;
#X connect 20 0 22 0;
#X connect 20 0 29 0;
#X connect 21 0 23 0;
#X connect 22 0 21 0;
#X connect 23 0 25 0;
#X connect 24 0 26 0;
#X connect 25 0 24 0;
#X connect 26 0 27 0;
#X connect 27 0 28 0;
#X connect 29 0 4 0;
#X connect 30 0 8 1;
#X connect 31 0 34 1;
#X connect 32 0 31 1;
#X connect 33 0 32 1;
#X connect 34 0 7 0;
#X restore 91 221 pd osc;
#N canvas 1038 218 818 422 ambient 0;
#N canvas 160 79 810 370 noise-gen-1 0;
#X obj 56 103 random 800;
#X obj 56 125 + 100;
#X obj 56 147 *~ 0.7;
#X obj 56 169 osc~;
#X obj 130 104 random 800;
#X obj 130 126 + 100;
#X obj 130 148 *~ 0.7;
#X obj 130 170 osc~;
#X obj 202 104 random 800;
#X obj 202 126 + 100;
#X obj 202 148 *~ 0.7;
#X obj 202 170 osc~;
#X obj 274 103 random 800;
#X obj 274 126 + 100;
#X obj 274 148 *~ 0.7;
#X obj 274 170 osc~;
#X obj 56 191 /~ 2;
#X obj 56 258 *~;
#X obj 281 229 inlet;
#X obj 153 31 inlet;
#X obj 56 280 outlet~;
#X connect 0 0 1 0;
#X connect 1 0 2 0;
#X connect 2 0 3 0;
#X connect 3 0 16 0;
#X connect 4 0 5 0;
#X connect 5 0 6 0;
#X connect 6 0 7 0;
#X connect 7 0 16 0;
#X connect 8 0 9 0;
#X connect 9 0 10 0;
#X connect 10 0 11 0;
#X connect 11 0 16 0;
#X connect 12 0 13 0;
#X connect 13 0 14 0;
#X connect 14 0 15 0;
#X connect 15 0 16 0;
#X connect 16 0 17 0;
#X connect 17 0 20 0;
#X connect 18 0 17 1;
#X connect 19 0 0 0;
#X connect 19 0 4 0;
#X connect 19 0 8 0;
#X connect 19 0 12 0;
#X restore 131 248 pd noise-gen-1;
#N canvas 926 313 450 300 noise-gen-2 0;
#X obj 87 49 inlet;
#X obj 87 71 bng 15 250 50 0 empty empty empty 17 7 0 10 -262144 -1
-1;
#X obj 87 91 random 1000;
#X obj 87 113 + 200;
#X floatatom 87 135 5 0 0 0 - - -, f 5;
#X obj 24 99 noise~;
#X obj 24 182 bp~ 0 50;
#X obj 228 72 bng 15 250 50 0 empty empty empty 17 7 0 10 -262144 -1
-1;
#X obj 228 92 random 1000;
#X obj 228 114 + 200;
#X floatatom 228 136 5 0 0 0 - - -, f 5;
#X obj 165 100 noise~;
#X obj 165 183 bp~ 0 50;
#X obj 370 72 bng 15 250 50 0 empty empty empty 17 7 0 10 -262144 -1
-1;
#X obj 370 92 random 1000;
#X obj 370 114 + 200;
#X floatatom 370 136 5 0 0 0 - - -, f 5;
#X obj 307 100 noise~;
#X obj 307 183 bp~ 0 50;
#X obj 24 230 *~;
#X obj 202 221 inlet;
#X obj 24 252 outlet~;
#X connect 0 0 1 0;
#X connect 0 0 7 0;
#X connect 0 0 13 0;
#X connect 1 0 2 0;
#X connect 2 0 3 0;
#X connect 3 0 4 0;
#X connect 4 0 6 1;
#X connect 5 0 6 0;
#X connect 6 0 19 0;
#X connect 7 0 8 0;
#X connect 8 0 9 0;
#X connect 9 0 10 0;
#X connect 10 0 12 1;
#X connect 11 0 12 0;
#X connect 12 0 19 0;
#X connect 13 0 14 0;
#X connect 14 0 15 0;
#X connect 15 0 16 0;
#X connect 16 0 18 1;
#X connect 17 0 18 0;
#X connect 18 0 19 0;
#X connect 19 0 21 0;
#X connect 20 0 19 1;
#X restore 234 314 pd noise-gen-2;
#X obj 200 218 unsig~;
#X obj 60 224 bng 15 250 50 0 empty empty empty 17 7 0 10 -262144 -1
-1;
#X obj 188 197 expr~ pow(($v1 - 0.5) \, 2) * 0.05;
#X obj 62 198 loadbang;
#X obj 185 152 r~ sig_main;
#X obj 184 174 expr~ fmod($v1 * 2 \, 1);
#X obj 247 341 *~ 20;
#X obj 277 279 unsig~;
#X obj 265 258 expr~ pow(($v1 - 0.5) \, 2) * 0.05;
#X obj 261 235 expr~ fmod($v1 * 2 + 0.2 \, 1);
#X obj 62 65 change;
#X obj 62 43 r main_count;
#X obj 62 106 random 100;
#X floatatom 131 108 5 0 0 0 - - -, f 5;
#X obj 62 87 bng 15 250 50 0 empty empty empty 17 7 0 10 -262144 -1
-1;
#X obj 62 128 expr if ($f1 > 95 \, 1 \, 0);
#X obj 62 150 sel 1;
#X obj 62 172 bng 15 250 50 0 empty empty empty 17 7 0 10 -262144 -1
-1;
#X obj 132 350 +~;
#X obj 131 397 outlet~;
#X obj 408 95 unsig~;
#X obj 395 74 expr~ pow(($v1 - 0.5) \, 2) * 0.05;
#X obj 393 29 r~ sig_main;
#N canvas 160 79 810 370 noise-gen-5 0;
#X obj 56 147 *~ 0.7;
#X obj 56 169 osc~;
#X obj 130 148 *~ 0.7;
#X obj 130 170 osc~;
#X obj 202 148 *~ 0.7;
#X obj 202 170 osc~;
#X obj 274 148 *~ 0.7;
#X obj 274 170 osc~;
#X obj 56 191 /~ 2;
#X obj 56 258 *~;
#X obj 281 229 inlet;
#X obj 153 31 inlet;
#X obj 56 280 outlet~;
#X obj 202 103 random 200;
#X obj 130 104 random 200;
#X obj 56 103 random 200;
#X obj 55 125 + 50;
#X obj 130 126 + 50;
#X obj 202 126 + 50;
#X obj 273 126 + 50;
#X obj 274 103 random 200;
#X connect 0 0 1 0;
#X connect 1 0 8 0;
#X connect 2 0 3 0;
#X connect 3 0 8 0;
#X connect 4 0 5 0;
#X connect 5 0 8 0;
#X connect 6 0 7 0;
#X connect 7 0 8 0;
#X connect 8 0 9 0;
#X connect 9 0 12 0;
#X connect 10 0 9 1;
#X connect 11 0 13 0;
#X connect 11 0 14 0;
#X connect 11 0 15 0;
#X connect 11 0 20 0;
#X connect 13 0 18 0;
#X connect 14 0 17 0;
#X connect 15 0 16 0;
#X connect 16 0 0 0;
#X connect 17 0 2 0;
#X connect 18 0 4 0;
#X connect 19 0 6 0;
#X connect 20 0 19 0;
#X restore 236 110 pd noise-gen-5;
#X obj 392 51 expr~ fmod($v1 * 4 \, 1);
#X obj 236 89 bng 15 250 50 0 empty empty empty 17 7 0 10 -262144 -1
-1;
#X obj 132 372 +~;
#X obj 237 68 sel 1;
#X obj 237 46 expr if ($f1 < 10 \, 1 \, 0);
#X obj 105 165 r noise-off;
#X connect 0 0 20 0;
#X connect 1 0 8 0;
#X connect 2 0 0 1;
#X connect 3 0 0 0;
#X connect 3 0 1 0;
#X connect 4 0 2 0;
#X connect 5 0 3 0;
#X connect 5 0 27 0;
#X connect 6 0 7 0;
#X connect 6 0 11 0;
#X connect 7 0 4 0;
#X connect 8 0 20 1;
#X connect 9 0 1 1;
#X connect 10 0 9 0;
#X connect 11 0 10 0;
#X connect 12 0 16 0;
#X connect 13 0 12 0;
#X connect 14 0 15 0;
#X connect 14 0 17 0;
#X connect 14 0 30 0;
#X connect 16 0 14 0;
#X connect 17 0 18 0;
#X connect 18 0 19 0;
#X connect 19 0 3 0;
#X connect 20 0 28 0;
#X connect 22 0 25 1;
#X connect 23 0 22 0;
#X connect 24 0 26 0;
#X connect 25 0 28 1;
#X connect 26 0 23 0;
#X connect 27 0 25 0;
#X connect 28 0 21 0;
#X connect 29 0 27 0;
#X connect 30 0 29 0;
#X connect 31 0 3 0;
#X restore 54 199 pd ambient;
#N canvas 283 67 1026 639 hh 0;
#X obj 63 48 *~;
#X obj 39 31 r~ sig_8th;
#X obj 114 177 expr~ if($v1<$v2 \, $v1/$v2 \, abs((($v1-$v2)/(1-$v2))-1))
;
#X obj 37 143 osc~ 2500;
#X obj 113 150 expr~ fmod($v1 * 128 \, 1);
#X obj 39 60 expr~ floor($v1 * 128);
#X obj 39 82 expr~ $v1 % 11 % 4;
#X obj 37 118 expr~ $v1*250 + 5000;
#X obj 121 249 expr~ pow($v1 \, $v2);
#X obj 124 204 expr~ if ($v1 == 1 \, 20 \, 4);
#X obj 207 54 unsig~ 1;
#X floatatom 219 74 5 0 0 0 - - -, f 5;
#X obj 120 225 expr~ if ($v1 > 100 \, $v2 \, 20);
#X obj 219 93 s hh_count;
#X obj 36 253 outlet~;
#X obj 267 152 expr~ if ($v1 > 96 \, $v2 \, 0.01);
#X obj 35 226 hip~ 10000;
#X obj 268 121 expr~ if ($v1 == 2 \, 0.01 \, 0.08);
#X obj 36 169 *~ 0.2;
#X msg 480 107 send /tick \$1;
#X obj 480 129 s osc-sig;
#X obj 314 33 change;
#X obj 421 64 spigot;
#X obj 428 33 tgl 15 0 empty empty empty 17 7 0 10 -262144 -1 -1 0
1;
#X obj 385 8 inlet;
#X connect 0 0 16 0;
#X connect 1 0 4 0;
#X connect 1 0 5 0;
#X connect 2 0 8 0;
#X connect 3 0 18 0;
#X connect 4 0 2 0;
#X connect 5 0 6 0;
#X connect 5 0 10 0;
#X connect 5 0 12 0;
#X connect 5 0 15 0;
#X connect 6 0 7 0;
#X connect 6 0 9 0;
#X connect 6 0 17 0;
#X connect 7 0 3 0;
#X connect 8 0 0 1;
#X connect 9 0 12 1;
#X connect 10 0 11 0;
#X connect 11 0 13 0;
#X connect 11 0 21 0;
#X connect 12 0 8 1;
#X connect 15 0 2 1;
#X connect 16 0 14 0;
#X connect 17 0 15 1;
#X connect 18 0 0 0;
#X connect 19 0 20 0;
#X connect 21 0 22 0;
#X connect 22 0 19 0;
#X connect 23 0 22 1;
#X connect 24 0 23 0;
#X restore 12 179 pd hh;
#N canvas 473 181 1209 723 strong-bass 0;
#X obj 146 388 *~;
#X obj 271 113 bng 15 250 50 0 empty empty empty 17 7 0 10 -262144
-1 -1;
#X obj 192 454 mono-pureverb;
#X obj 199 391 hsl 128 15 0 127 0 0 empty empty empty -2 -8 0 10 -262144
-1 -1 12700 1;
#X obj 196 411 / 127;
#X obj 314 246 hsl 128 15 0 127 0 0 empty empty empty -2 -8 0 10 -262144
-1 -1 12700 1;
#X obj 311 266 / 127;
#X msg 243 270 0 1000;
#X obj 139 208 osc~ 30;
#X obj 69 308 osc~ 50;
#X obj 76 149 osc~ 80;
#X obj 146 360 lop~ 2000;
#X obj 102 499 *~;
#X obj 102 521 +~;
#X obj 243 221 t b b b b b;
#X msg 96 414 1;
#X obj 269 51 inlet;
#X obj 102 543 outlet~;
#X obj 444 155 loadbang;
#X obj 146 416 *~ 1;
#X obj 145 328 *~ 1;
#X obj 55 386 del 1000;
#X obj 59 444 line~;
#X obj 77 98 expr~ pow($v1 \, 0.5);
#X obj 77 124 expr~ $v1 * 50 + 80;
#X obj 140 156 expr~ pow($v1 \, 2);
#X obj 140 182 expr~ $v1 * 80 + 30;
#X obj 244 342 line~;
#X obj 244 365 expr~ pow($v1 \, 12);
#X obj 243 247 del 2;
#X msg 283 319 0;
#X obj 102 459 lop~ 50;
#X msg 53 413 0 600;
#X msg 263 294 1 1;
#X obj 69 255 expr~ pow($v1 \, 30);
#X obj 68 281 expr~ $v1 * 500 + 50;
#X obj 586 317 *~;
#X obj 462 256 noise~;
#X msg 276 425 0 0.15 \, 1 0.6 \, 2 0.9 \, 3 0.8;
#X obj 349 134 loadbang;
#X msg 349 156 127;
#X obj 467 426 expr~ pow($v1 \, 2);
#X obj 467 452 expr~ $v1 * 50 + 10;
#X obj 466 478 osc~ 20;
#X obj 594 252 expr~ if ($v1 > 0.99 \, 1 \, 0);
#X obj 461 286 osc~ 8000;
#X connect 0 0 19 0;
#X connect 1 0 14 0;
#X connect 2 0 13 1;
#X connect 3 0 4 0;
#X connect 4 0 19 1;
#X connect 5 0 6 0;
#X connect 6 0 20 1;
#X connect 7 0 27 0;
#X connect 8 0 20 0;
#X connect 8 0 31 0;
#X connect 9 0 11 0;
#X connect 10 0 11 0;
#X connect 11 0 0 0;
#X connect 12 0 13 0;
#X connect 13 0 17 0;
#X connect 14 0 29 0;
#X connect 14 1 33 0;
#X connect 14 2 30 0;
#X connect 14 3 21 0;
#X connect 14 4 15 0;
#X connect 15 0 22 0;
#X connect 16 0 1 0;
#X connect 18 0 38 0;
#X connect 19 0 2 0;
#X connect 20 0 11 0;
#X connect 21 0 32 0;
#X connect 22 0 12 0;
#X connect 23 0 24 0;
#X connect 24 0 10 0;
#X connect 25 0 26 0;
#X connect 26 0 8 0;
#X connect 27 0 23 0;
#X connect 27 0 25 0;
#X connect 27 0 28 0;
#X connect 27 0 34 0;
#X connect 27 0 41 0;
#X connect 27 0 44 0;
#X connect 28 0 0 1;
#X connect 29 0 7 0;
#X connect 30 0 27 0;
#X connect 31 0 12 1;
#X connect 32 0 22 0;
#X connect 33 0 27 0;
#X connect 34 0 35 0;
#X connect 35 0 9 0;
#X connect 36 0 11 0;
#X connect 37 0 36 0;
#X connect 38 0 2 1;
#X connect 39 0 40 0;
#X connect 40 0 5 0;
#X connect 40 0 3 0;
#X connect 41 0 42 0;
#X connect 42 0 43 0;
#X connect 43 0 31 0;
#X connect 44 0 36 1;
#X connect 45 0 36 0;
#X restore 340 156 pd strong-bass;
#X obj 340 135 bng 15 250 50 0 empty empty empty 17 7 0 10 -262144
-1 -1;
#X obj 340 203 throw~ master;
#N canvas 1009 152 719 527 aliens-talk 0;
#N canvas 443 67 1130 733 arp 0;
#X obj 50 492 *~;
#X obj 80 464 expr~ min($v1*1.5 \, 1);
#X obj 80 383 expr~ fmod($v1*3 \, 1);
#X obj 50 609 *~;
#X obj 85 553 expr~ abs(($v1%3)-2);
#X obj 85 580 expr~ 0.5+(pow(($v1/2) \, 4)*0.5);
#X obj 50 465 osc~;
#X obj 50 318 +~;
#X obj 94 284 osc~;
#X obj 94 311 *~;
#X floatatom 128 228 5 0 0 0 - - -, f 5;
#X obj 245 469 expr~ if($v1==0 \, 3 \, if($v1==1 \, 5 \, if($v1==2
\, 4 \, 7)));
#X obj 49 211 mtof~;
#X obj 119 92 expr~ if($v1==0 \, 7 \, if($v1==1 \, 3 \, if($v1==2 \,
8 \, 7)));
#X obj 65 162 expr~ if($v1==0 \, 0 \, if($v1==1 \, $v2 \, $v3));
#X obj 155 125 expr~ if($v1==0 \, 12 \, if($v1==1 \, 10 \, if($v1==2
\, 12 \, $v2)));
#X obj 353 62 expr~ if($v1==0 \, 12 \, 11);
#X obj 49 238 *~ 2;
#X obj 50 31 r~ sig_8th;
#X obj 352 9 r~ sig_main, f 13;
#X obj 119 65 r~ count_phrase;
#X obj 39 695 outlet~;
#X obj 394 298 expr~ if($v1<$v2 \, abs(pow(abs(($v1/$v2)-1) \, $v3)-1)
\, abs(pow(($v1-$V2)/(1-$v2) \, $v4)-1));
#X obj 543 261 sig~ 0.05;
#X obj 670 265 expr~ if($v1==0 \, 8 \, 2);
#X obj 618 265 sig~ 4;
#X obj 224 401 expr~ $v2+(sin($v1*3.1415*2)*($v2*0.9));
#X floatatom 213 252 5 0 0 0 - - -, f 5;
#X obj 94 257 *~ 0.5;
#X obj 186 290 *~ 10;
#X obj 245 496 expr~ if($v1==1 \, 7 \, 5);
#X obj 48 184 +~ 48;
#X obj 245 442 expr~ floor($v1*16)%4;
#X obj 352 36 expr~ floor($v1*8)%2;
#X obj 80 356 expr~ fmod($v1*64 \, 1);
#X obj 85 526 expr~ floor($v1*4*72)%$v2;
#X obj 80 437 expr~ pow($v1 \, 16);
#X obj 289 218 expr~ fmod($v1*32 \, 1);
#X obj 483 197 expr~ floor($v1*32)%2;
#X obj 50 636 *~ 0.04;
#X connect 0 0 3 0;
#X connect 1 0 0 1;
#X connect 2 0 22 0;
#X connect 3 0 39 0;
#X connect 4 0 5 0;
#X connect 4 0 14 0;
#X connect 5 0 3 1;
#X connect 6 0 0 0;
#X connect 7 0 6 0;
#X connect 8 0 9 0;
#X connect 9 0 7 1;
#X connect 10 0 28 1;
#X connect 11 0 30 0;
#X connect 12 0 17 0;
#X connect 12 0 29 0;
#X connect 13 0 14 1;
#X connect 14 0 31 0;
#X connect 15 0 14 2;
#X connect 16 0 15 1;
#X connect 17 0 7 0;
#X connect 17 0 28 0;
#X connect 18 0 34 0;
#X connect 18 0 35 0;
#X connect 19 0 33 0;
#X connect 19 0 37 0;
#X connect 19 0 38 0;
#X connect 20 0 13 0;
#X connect 20 0 15 0;
#X connect 22 0 36 0;
#X connect 23 0 22 1;
#X connect 24 0 22 3;
#X connect 25 0 22 2;
#X connect 26 0 9 1;
#X connect 27 0 29 1;
#X connect 28 0 8 0;
#X connect 29 0 26 1;
#X connect 30 0 35 1;
#X connect 31 0 12 0;
#X connect 32 0 11 0;
#X connect 33 0 16 0;
#X connect 34 0 2 0;
#X connect 35 0 4 0;
#X connect 36 0 1 0;
#X connect 37 0 26 0;
#X connect 38 0 24 0;
#X connect 39 0 21 0;
#X restore 200 173 pd arp;
#X obj 279 208 tgl 15 0 empty empty empty 17 7 0 10 -262144 -1 -1 0
1;
#X obj 279 143 f;
#X obj 294 119 random 128;
#X obj 279 56 r hh_count;
#X obj 279 78 change;
#X obj 279 100 bng 15 250 50 0 empty empty empty 17 7 0 10 -262144
-1 -1;
#X floatatom 279 165 5 0 0 0 - - -, f 5;
#X obj 279 184 expr if ($f1 > $f2 \, 1 \, 0);
#X obj 200 195 *~;
#X obj 327 158 expr if ($f1 == 1 \, 30 \, 120);
#X msg 347 286 send /arp 0;
#X msg 319 309 send /arp 1;
#X obj 459 357 s osc-sig;
#X obj 362 209 change;
#X obj 317 213 sel 1;
#X obj 362 232 sel 0;
#X obj 200 217 *~ 0.8;
#X obj 211 397 mono-pureverb4;
#X msg 227 366 0 0.15 \, 1 0.4 \, 2 0.6 \, 3 0.2;
#X obj 228 338 loadbang;
#X obj 211 467 outlet~;
#X obj 126 257 tgl 15 0 empty empty empty 17 7 0 10 -262144 -1 -1 0
1;
#X obj 110 205 inlet;
#X obj 210 264 *~;
#X obj 542 221 inlet;
#X obj 542 243 tgl 15 0 empty empty empty 17 7 0 10 -262144 -1 -1 0
1;
#X obj 461 325 spigot;
#X connect 0 0 9 0;
#X connect 1 0 9 1;
#X connect 1 0 10 0;
#X connect 1 0 14 0;
#X connect 1 0 15 0;
#X connect 2 0 7 0;
#X connect 3 0 2 1;
#X connect 4 0 5 0;
#X connect 5 0 6 0;
#X connect 6 0 2 0;
#X connect 6 0 3 0;
#X connect 7 0 8 0;
#X connect 8 0 1 0;
#X connect 9 0 17 0;
#X connect 10 0 8 1;
#X connect 11 0 27 0;
#X connect 12 0 27 0;
#X connect 14 0 16 0;
#X connect 15 0 12 0;
#X connect 16 0 11 0;
#X connect 17 0 24 0;
#X connect 18 0 21 0;
#X connect 19 0 18 1;
#X connect 20 0 19 0;
#X connect 22 0 24 1;
#X connect 23 0 22 0;
#X connect 24 0 18 0;
#X connect 25 0 26 0;
#X connect 26 0 27 1;
#X connect 27 0 13 0;
#X restore 174 268 pd aliens-talk;
#X obj 131 244 tgl 15 0 empty empty empty 17 7 0 10 -262144 -1 -1 0
1;
#X obj 174 245 tgl 15 0 empty empty empty 17 7 0 10 -262144 -1 -1 0
1;
#N canvas 0 22 440 362 osc-connection 0;
#X obj 82 91 udpsend;
#X obj 82 -6 tgl 15 0 empty empty empty 17 7 0 10 -262144 -1 -1 0 1
;
#X obj 82 17 sel 0 1;
#X msg 82 39 disconnect;
#X msg 102 66 connect localhost 2204;
#X obj 82 113 tgl 15 0 empty empty empty 17 7 0 10 -262144 -1 -1 0
1;
#X obj 249 83 packOSC;
#X obj 249 105 spigot;
#X obj 249 0 r osc-sig;
#X obj 262 62 print;
#X obj 61 137 udpreceive 2205;
#X obj 170 177 spigot;
#X obj 180 147 tgl 15 0 empty empty empty 17 7 0 10 -262144 -1 -1 0
1;
#X obj 262 40 spigot;
#X obj 281 17 tgl 15 0 empty empty empty 17 7 0 10 -262144 -1 -1 0
1;
#X obj 61 160 unpackOSC;
#X obj 61 182 route /connect;
#X obj 61 204 sel 1;
#X msg 61 226 1;
#X obj 170 199 print;
#X obj 337 0 inlet;
#X connect 0 0 5 0;
#X connect 1 0 2 0;
#X connect 2 0 3 0;
#X connect 2 1 4 0;
#X connect 3 0 0 0;
#X connect 4 0 0 0;
#X connect 5 0 7 1;
#X connect 6 0 7 0;
#X connect 7 0 0 0;
#X connect 8 0 6 0;
#X connect 8 0 13 0;
#X connect 10 0 15 0;
#X connect 11 0 19 0;
#X connect 12 0 11 1;
#X connect 13 0 9 0;
#X connect 14 0 13 1;
#X connect 15 0 16 0;
#X connect 15 0 11 0;
#X connect 16 0 17 0;
#X connect 17 0 18 0;
#X connect 18 0 1 0;
#X connect 20 0 14 0;
#X restore 18 123 pd osc-connection;
#N canvas 0 22 671 504 control-signal 0;
#X obj 137 411 expr~ fmod($v1*8 \, 1);
#X obj 134 154 expr~ $v1/60;
#X msg 316 100 \; pd dsp 1;
#X obj 316 78 t b b;
#X obj 316 53 bng 15 250 50 0 empty empty empty 17 7 0 10 -262144 -1
-1;
#X obj 137 434 s~ sig_8th;
#X obj 138 385 s~ sig_main;
#X obj 137 313 s~ count_phrase;
#X obj 138 361 s~ count_half_phrase;
#X obj 197 204 s~ freq;
#X obj 134 235 phasor~;
#X obj 134 206 *~ 0.125;
#X obj 135 260 expr~ fmod($v1*8 \, 1);
#X obj 137 290 expr~ floor($v1*4);
#X obj 137 337 expr~ floor($v1*8)%2;
#X msg 343 135 0;
#X obj 273 260 expr~ floor($v1 * 64);
#X obj 273 282 unsig~ 10;
#X floatatom 273 304 5 0 0 0 - - -, f 5;
#X obj 134 181 expr~ $v1/4/8/8;
#X obj 134 128 sig~ 157;
#X obj 273 323 s main_count;
#X obj 312 11 inlet;
#X connect 0 0 5 0;
#X connect 1 0 19 0;
#X connect 3 0 2 0;
#X connect 3 1 15 0;
#X connect 4 0 3 0;
#X connect 10 0 12 0;
#X connect 10 0 16 0;
#X connect 11 0 10 0;
#X connect 12 0 6 0;
#X connect 12 0 0 0;
#X connect 12 0 13 0;
#X connect 12 0 14 0;
#X connect 13 0 7 0;
#X connect 14 0 8 0;
#X connect 15 0 10 1;
#X connect 16 0 17 0;
#X connect 17 0 18 0;
#X connect 18 0 21 0;
#X connect 19 0 9 0;
#X connect 19 0 11 0;
#X connect 20 0 1 0;
#X connect 22 0 4 0;
#X restore 34 102 pd control-signal;
#X obj 34 73 bng 15 250 50 0 empty empty empty 17 7 0 10 -262144 -1
-1;
#X msg 98 29 \; pd dsp 1;
#X obj 32 386 bng 15 250 50 0 empty empty empty 17 7 0 10 -262144 -1
-1;
#X obj 33 433 line;
#X floatatom 129 462 5 0 0 0 - - -, f 5;
#X obj 340 181 *~ 0.5;
#X obj 340 15 key;
#X floatatom 340 37 5 0 0 0 - - -, f 5;
#N canvas 198 229 1209 723 strong-tom 0;
#X obj 146 388 *~;
#X obj 271 113 bng 15 250 50 0 empty empty empty 17 7 0 10 -262144
-1 -1;
#X obj 192 454 mono-pureverb;
#X obj 199 391 hsl 128 15 0 127 0 0 empty empty empty -2 -8 0 10 -262144
-1 -1 12700 1;
#X obj 196 411 / 127;
#X obj 314 246 hsl 128 15 0 127 0 0 empty empty empty -2 -8 0 10 -262144
-1 -1 12700 1;
#X obj 311 266 / 127;
#X obj 139 208 osc~ 30;
#X obj 69 308 osc~ 50;
#X obj 146 360 lop~ 2000;
#X obj 102 499 *~;
#X obj 100 555 +~;
#X obj 243 221 t b b b b b;
#X msg 96 414 1;
#X obj 269 51 inlet;
#X obj 100 577 outlet~;
#X obj 444 155 loadbang;
#X obj 146 416 *~ 1;
#X obj 145 328 *~ 1;
#X obj 41 472 line~;
#X obj 140 156 expr~ pow($v1 \, 2);
#X obj 244 342 line~;
#X obj 243 247 del 2;
#X msg 283 319 0;
#X obj 102 459 lop~ 50;
#X msg 263 294 1 1;
#X obj 69 255 expr~ pow($v1 \, 30);
#X obj 68 281 expr~ $v1 * 500 + 50;
#X obj 586 317 *~;
#X obj 462 256 noise~;
#X obj 349 134 loadbang;
#X msg 349 156 127;
#X obj 594 252 expr~ if ($v1 > 0.99 \, 1 \, 0);
#X msg 242 270 0 200;
#X obj 55 386 del 200;
#X obj 461 286 osc~ 3000;
#X obj 140 182 expr~ $v1 * 80 + 40;
#X obj 400 43 inlet;
#X obj 244 365 expr~ pow($v1 \, 12);
#X obj 76 149 osc~ 80;
#X obj 77 98 expr~ pow($v1 \, 0.5);
#X obj 77 124 expr~ $v1 * 50 + 110;
#X msg 35 440 0 100;
#X obj 102 521 *~;
#X msg 276 425 0 0 \, 1 0.7 \, 2 0.8 \, 3 0.3;
#X connect 0 0 17 0;
#X connect 1 0 12 0;
#X connect 2 0 11 1;
#X connect 3 0 4 0;
#X connect 4 0 17 1;
#X connect 5 0 6 0;
#X connect 6 0 18 1;
#X connect 7 0 18 0;
#X connect 7 0 24 0;
#X connect 8 0 9 0;
#X connect 9 0 0 0;
#X connect 10 0 43 0;
#X connect 11 0 15 0;
#X connect 12 0 22 0;
#X connect 12 1 25 0;
#X connect 12 2 23 0;
#X connect 12 3 34 0;
#X connect 12 4 13 0;
#X connect 13 0 19 0;
#X connect 14 0 1 0;
#X connect 16 0 44 0;
#X connect 17 0 2 0;
#X connect 18 0 9 0;
#X connect 19 0 10 0;
#X connect 20 0 36 0;
#X connect 21 0 20 0;
#X connect 21 0 26 0;
#X connect 21 0 32 0;
#X connect 21 0 38 0;
#X connect 21 0 40 0;
#X connect 22 0 33 0;
#X connect 23 0 21 0;
#X connect 24 0 10 1;
#X connect 25 0 21 0;
#X connect 26 0 27 0;
#X connect 27 0 8 0;
#X connect 28 0 9 0;
#X connect 29 0 28 0;
#X connect 30 0 31 0;
#X connect 31 0 5 0;
#X connect 31 0 3 0;
#X connect 32 0 28 1;
#X connect 33 0 21 0;
#X connect 34 0 42 0;
#X connect 35 0 28 0;
#X connect 36 0 7 0;
#X connect 37 0 43 1;
#X connect 38 0 0 1;
#X connect 39 0 9 0;
#X connect 40 0 41 0;
#X connect 41 0 39 0;
#X connect 42 0 19 0;
#X connect 43 0 11 0;
#X connect 44 0 2 1;
#X restore 499 365 pd strong-tom;
#X obj 499 447 throw~ master;
#X obj 499 413 *~ 0.5;
#X obj 487 222 bng 15 250 50 0 empty empty empty 17 7 0 10 -262144
-1 -1;
#X obj 473 77 r~ sig_8th;
#X obj 471 171 unsig~ 1;
#X obj 471 193 change;
#X floatatom 516 193 5 0 0 0 - - -, f 5;
#X obj 473 104 expr~ fmod($v1 * 4 \, 1);
#X obj 472 149 expr~ floor($v1 * 16);
#X obj 472 126 expr~ pow($v1 \, 5);
#X obj 574 341 unsig~ 1;
#X msg 517 314 0;
#X obj 540 346 tgl 15 0 empty empty empty 17 7 0 10 -262144 -1 -1 0
1;
#X obj 499 389 *~;
#X msg 569 316 1;
#X obj 516 212 change;
#X obj 516 236 sel 0;
#X obj 516 258 spigot;
#N canvas 0 22 1005 610 ns-stutter 0;
#X obj 115 54 inlet;
#X obj 190 1 osc~ 12000;
#X obj 263 5 noise~;
#X obj 190 30 +~;
#X obj 249 85 expr~ if ($v1 < 0.5 \, 0 \, 1);
#X obj 196 376 *~;
#X obj 104 352 tgl 15 0 empty empty empty 17 7 0 10 -262144 -1 -1 0
1;
#X obj 190 69 *~;
#X obj 190 91 *~ 0.1;
#X obj 249 33 r~ sig_8th;
#X obj 249 59 expr~ fmod($v1 * 128 \, 1);
#X obj 299 145 unsig~ 1;
#X obj 299 167 change;
#X obj 299 189 bng 15 250 50 0 empty empty empty 17 7 0 10 -262144
-1 -1;
#X obj 209 141 osc~ 1000;
#X obj 209 163 lop~ 800;
#X obj 209 185 *~ 0.1;
#X obj 357 171 r~ sig_8th;
#X obj 357 215 expr~ if ($v1 < 0.5 \, 1 \, 0);
#X obj 356 194 expr~ fmod($v1 * 64 \, 1);
#X obj 357 238 *~ 0.2;
#X obj 357 265 random 100;
#X obj 341 334 *~;
#X obj 341 310 noise~;
#X obj 341 386 *~ 0.2;
#X obj 341 356 hip~ 500;
#X obj 356 287 expr if ($f1 > 70 \, 1 \, 0);
#X obj 416 358 mono-pureverb;
#X obj 441 305 loadbang;
#X msg 440 333 0 0.15 \, 1 0.3 \, 2 0.3 \, 3 0.2;
#X obj 106 259 mono-pureverb;
#X obj 131 206 loadbang;
#X msg 130 234 0 0.15 \, 1 0.3 \, 2 0.3 \, 3 0.2;
#X obj 299 123 expr~ floor($v1 * 80);
#X obj 196 400 *~ 0.7;
#X obj 196 422 outlet~;
#X connect 0 0 6 0;
#X connect 1 0 3 0;
#X connect 2 0 3 1;
#X connect 3 0 7 0;
#X connect 4 0 7 1;
#X connect 5 0 34 0;
#X connect 6 0 5 1;
#X connect 7 0 8 0;
#X connect 8 0 5 0;
#X connect 9 0 10 0;
#X connect 9 0 33 0;
#X connect 10 0 4 0;
#X connect 11 0 12 0;
#X connect 12 0 13 0;
#X connect 13 0 21 0;
#X connect 14 0 15 0;
#X connect 15 0 16 0;
#X connect 16 0 30 0;
#X connect 17 0 19 0;
#X connect 18 0 20 0;
#X connect 19 0 18 0;
#X connect 20 0 5 0;
#X connect 21 0 26 0;
#X connect 22 0 25 0;
#X connect 23 0 22 0;
#X connect 24 0 27 0;
#X connect 25 0 24 0;
#X connect 26 0 22 1;
#X connect 27 0 5 0;
#X connect 28 0 29 0;
#X connect 29 0 27 1;
#X connect 30 0 5 0;
#X connect 31 0 32 0;
#X connect 32 0 30 1;
#X connect 33 0 11 0;
#X connect 34 0 35 0;
#X restore 365 107 pd ns-stutter;
#X obj 365 83 tgl 15 0 empty empty empty 17 7 0 10 -262144 -1 -1 0
1;
#X obj 365 129 throw~ master;
#X obj 516 282 del 200;
#X obj 39 288 *~;
#X obj 29 313 throw~ master;
#X obj 109 289 tgl 15 0 empty empty empty 17 7 0 10 -262144 -1 -1 1
1;
#X msg 624 57 0;
#X obj 553 80 phasor~ 0.08;
#X obj 556 14 bng 15 250 50 0 empty empty empty 17 7 0 10 -262144 -1
-1;
#X obj 580 212 del 10;
#X obj 556 33 t b b b b;
#X msg 582 57 0.08;
#N canvas 198 229 1209 723 strong-tom 0;
#X obj 146 388 *~;
#X obj 271 113 bng 15 250 50 0 empty empty empty 17 7 0 10 -262144
-1 -1;
#X obj 192 454 mono-pureverb;
#X obj 199 391 hsl 128 15 0 127 0 0 empty empty empty -2 -8 0 10 -262144
-1 -1 12700 1;
#X obj 196 411 / 127;
#X obj 314 246 hsl 128 15 0 127 0 0 empty empty empty -2 -8 0 10 -262144
-1 -1 12700 1;
#X obj 311 266 / 127;
#X obj 139 208 osc~ 30;
#X obj 69 308 osc~ 50;
#X obj 146 360 lop~ 2000;
#X obj 102 499 *~;
#X obj 100 555 +~;
#X obj 243 221 t b b b b b;
#X msg 96 414 1;
#X obj 269 51 inlet;
#X obj 100 577 outlet~;
#X obj 444 155 loadbang;
#X obj 146 416 *~ 1;
#X obj 145 328 *~ 1;
#X obj 41 472 line~;
#X obj 140 156 expr~ pow($v1 \, 2);
#X obj 244 342 line~;
#X obj 243 247 del 2;
#X msg 283 319 0;
#X obj 102 459 lop~ 50;
#X msg 263 294 1 1;
#X obj 69 255 expr~ pow($v1 \, 30);
#X obj 68 281 expr~ $v1 * 500 + 50;
#X obj 586 317 *~;
#X obj 462 256 noise~;
#X obj 349 134 loadbang;
#X msg 349 156 127;
#X obj 594 252 expr~ if ($v1 > 0.99 \, 1 \, 0);
#X msg 242 270 0 200;
#X obj 55 386 del 200;
#X obj 461 286 osc~ 3000;
#X obj 140 182 expr~ $v1 * 80 + 40;
#X obj 400 43 inlet;
#X obj 244 365 expr~ pow($v1 \, 12);
#X obj 76 149 osc~ 80;
#X obj 77 98 expr~ pow($v1 \, 0.5);
#X obj 77 124 expr~ $v1 * 50 + 110;
#X msg 35 440 0 100;
#X obj 102 521 *~;
#X msg 276 425 0 0 \, 1 0.7 \, 2 0.8 \, 3 0.3;
#X connect 0 0 17 0;
#X connect 1 0 12 0;
#X connect 2 0 11 1;
#X connect 3 0 4 0;
#X connect 4 0 17 1;
#X connect 5 0 6 0;
#X connect 6 0 18 1;
#X connect 7 0 18 0;
#X connect 7 0 24 0;
#X connect 8 0 9 0;
#X connect 9 0 0 0;
#X connect 10 0 43 0;
#X connect 11 0 15 0;
#X connect 12 0 22 0;
#X connect 12 1 25 0;
#X connect 12 2 23 0;
#X connect 12 3 34 0;
#X connect 12 4 13 0;
#X connect 13 0 19 0;
#X connect 14 0 1 0;
#X connect 16 0 44 0;
#X connect 17 0 2 0;
#X connect 18 0 9 0;
#X connect 19 0 10 0;
#X connect 20 0 36 0;
#X connect 21 0 20 0;
#X connect 21 0 26 0;
#X connect 21 0 32 0;
#X connect 21 0 38 0;
#X connect 21 0 40 0;
#X connect 22 0 33 0;
#X connect 23 0 21 0;
#X connect 24 0 10 1;
#X connect 25 0 21 0;
#X connect 26 0 27 0;
#X connect 27 0 8 0;
#X connect 28 0 9 0;
#X connect 29 0 28 0;
#X connect 30 0 31 0;
#X connect 31 0 5 0;
#X connect 31 0 3 0;
#X connect 32 0 28 1;
#X connect 33 0 21 0;
#X connect 34 0 42 0;
#X connect 35 0 28 0;
#X connect 36 0 7 0;
#X connect 37 0 43 1;
#X connect 38 0 0 1;
#X connect 39 0 9 0;
#X connect 40 0 41 0;
#X connect 41 0 39 0;
#X connect 42 0 19 0;
#X connect 43 0 11 0;
#X connect 44 0 2 1;
#X restore 892 363 pd strong-tom;
#X obj 892 445 throw~ master;
#X obj 892 411 *~ 0.5;
#X obj 880 220 bng 15 250 50 0 empty empty empty 17 7 0 10 -262144
-1 -1;
#X obj 866 75 r~ sig_8th;
#X obj 864 169 unsig~ 1;
#X obj 864 191 change;
#X floatatom 909 191 5 0 0 0 - - -, f 5;
#X obj 967 339 unsig~ 1;
#X obj 892 387 *~;
#X obj 909 210 change;
#X obj 909 256 spigot;
#X msg 1017 55 0;
#X obj 946 78 phasor~ 0.08;
#X obj 949 12 bng 15 250 50 0 empty empty empty 17 7 0 10 -262144 -1
-1;
#X obj 973 210 del 10;
#X obj 949 31 t b b b b;
#X msg 975 55 0.08;
#X obj 866 102 expr~ fmod($v1 * 2 \, 1);
#X obj 865 124 expr~ pow($v1 \, 0.5);
#X obj 865 146 expr~ 32 - floor($v1 * 32);
#X msg 962 314 1;
#X msg 910 312 0;
#X obj 909 341 tgl 15 0 empty empty empty 17 7 0 10 -262144 -1 -1 0
1;
#X obj 909 234 sel 14;
#X obj 340 329 throw~ master;
#N canvas 0 22 1002 761 ding-2 0;
#X obj 103 65 inlet;
#X obj 175 417 outlet~;
#X obj 177 304 *~;
#X obj 279 109 bng 15 250 50 0 empty empty empty 17 7 0 10 -262144
-1 -1;
#X obj 177 363 hip~ 2000;
#X obj 279 174 line~;
#X obj 279 205 expr~ pow($v1 \, 10);
#X obj 403 171 line~;
#X obj 279 234 +~;
#X obj 403 195 expr~ pow($v1 \, 0.5) * 0.02;
#X obj 176 386 *~ 0.3;
#X obj 223 265 noise~;
#X obj 225 290 *~;
#X obj 177 326 +~;
#X obj 284 297 expr~ pow($v1 \, 100);
#X msg 403 141 1 \, 0 3000;
#X obj 160 140 phasor~ 4000;
#X obj 177 161 phasor~ 18002;
#X obj 188 185 phasor~ 9001;
#X obj 198 203 osc~ 50000;
#X msg 279 143 1 \, 0 100;
#X connect 0 0 3 0;
#X connect 2 0 13 0;
#X connect 3 0 20 0;
#X connect 3 0 15 0;
#X connect 4 0 10 0;
#X connect 5 0 6 0;
#X connect 5 0 14 0;
#X connect 6 0 8 0;
#X connect 7 0 9 0;
#X connect 8 0 2 1;
#X connect 9 0 8 1;
#X connect 10 0 1 0;
#X connect 11 0 12 0;
#X connect 12 0 13 1;
#X connect 13 0 4 0;
#X connect 15 0 7 0;
#X connect 16 0 2 0;
#X connect 17 0 2 0;
#X connect 18 0 2 0;
#X connect 19 0 2 0;
#X connect 20 0 5 0;
#X restore 340 303 pd ding-2;
#X obj 355 227 random 100;
#X obj 355 271 sel 1;
#X obj 355 248 expr if ($f1 < 50 \, 1 \, 5);
#X obj 853 281 spigot;
#X obj 909 280 del 1000;
#X msg 882 256 0;
#X obj 297 57 s key;
#X obj 642 340 s osc-sig;
#X obj 439 332 spigot;
#X obj 91 264 *~;
#X obj 106 245 tgl 15 0 empty empty empty 17 7 0 10 -262144 -1 -1 0
1;
#X obj 54 262 *~;
#X obj 75 243 tgl 15 0 empty empty empty 17 7 0 10 -262144 -1 -1 1
1;
#X obj 12 260 *~;
#X obj 33 241 tgl 15 0 empty empty empty 17 7 0 10 -262144 -1 -1 0
1;
#X obj 340 56 sel 90 88 67;
#N canvas 0 22 679 498 drum-set 0;
#X obj 18 257 r~ sig_main;
#X obj 18 281 unsig~ 1;
#X floatatom 18 303 5 0 0 0 - - -, f 5;
#N canvas 198 229 1209 723 strong-tom 0;
#X obj 146 388 *~;
#X obj 271 113 bng 15 250 50 0 empty empty empty 17 7 0 10 -262144
-1 -1;
#X obj 192 454 mono-pureverb;
#X obj 199 391 hsl 128 15 0 127 0 0 empty empty empty -2 -8 0 10 -262144
-1 -1 12700 1;
#X obj 196 411 / 127;
#X obj 314 246 hsl 128 15 0 127 0 0 empty empty empty -2 -8 0 10 -262144
-1 -1 12700 1;
#X obj 311 266 / 127;
#X obj 139 208 osc~ 30;
#X obj 69 308 osc~ 50;
#X obj 146 360 lop~ 2000;
#X obj 102 499 *~;
#X obj 100 555 +~;
#X obj 243 221 t b b b b b;
#X msg 96 414 1;
#X obj 269 51 inlet;
#X obj 100 577 outlet~;
#X obj 444 155 loadbang;
#X obj 146 416 *~ 1;
#X obj 145 328 *~ 1;
#X obj 41 472 line~;
#X obj 140 156 expr~ pow($v1 \, 2);
#X obj 244 342 line~;
#X obj 243 247 del 2;
#X msg 283 319 0;
#X obj 102 459 lop~ 50;
#X msg 263 294 1 1;
#X obj 69 255 expr~ pow($v1 \, 30);
#X obj 68 281 expr~ $v1 * 500 + 50;
#X obj 586 317 *~;
#X obj 462 256 noise~;
#X obj 349 134 loadbang;
#X msg 349 156 127;
#X obj 594 252 expr~ if ($v1 > 0.99 \, 1 \, 0);
#X msg 242 270 0 200;
#X obj 55 386 del 200;
#X obj 461 286 osc~ 3000;
#X obj 140 182 expr~ $v1 * 80 + 40;
#X obj 400 43 inlet;
#X obj 244 365 expr~ pow($v1 \, 12);
#X obj 76 149 osc~ 80;
#X obj 77 98 expr~ pow($v1 \, 0.5);
#X obj 77 124 expr~ $v1 * 50 + 110;
#X msg 35 440 0 100;
#X obj 102 521 *~;
#X msg 276 425 0 0 \, 1 0.7 \, 2 0.8 \, 3 0.3;
#X connect 0 0 17 0;
#X connect 1 0 12 0;
#X connect 2 0 11 1;
#X connect 3 0 4 0;
#X connect 4 0 17 1;
#X connect 5 0 6 0;
#X connect 6 0 18 1;
#X connect 7 0 18 0;
#X connect 7 0 24 0;
#X connect 8 0 9 0;
#X connect 9 0 0 0;
#X connect 10 0 43 0;
#X connect 11 0 15 0;
#X connect 12 0 22 0;
#X connect 12 1 25 0;
#X connect 12 2 23 0;
#X connect 12 3 34 0;
#X connect 12 4 13 0;
#X connect 13 0 19 0;
#X connect 14 0 1 0;
#X connect 16 0 44 0;
#X connect 17 0 2 0;
#X connect 18 0 9 0;
#X connect 19 0 10 0;
#X connect 20 0 36 0;
#X connect 21 0 20 0;
#X connect 21 0 26 0;
#X connect 21 0 32 0;
#X connect 21 0 38 0;
#X connect 21 0 40 0;
#X connect 22 0 33 0;
#X connect 23 0 21 0;
#X connect 24 0 10 1;
#X connect 25 0 21 0;
#X connect 26 0 27 0;
#X connect 27 0 8 0;
#X connect 28 0 9 0;
#X connect 29 0 28 0;
#X connect 30 0 31 0;
#X connect 31 0 5 0;
#X connect 31 0 3 0;
#X connect 32 0 28 1;
#X connect 33 0 21 0;
#X connect 34 0 42 0;
#X connect 35 0 28 0;
#X connect 36 0 7 0;
#X connect 37 0 43 1;
#X connect 38 0 0 1;
#X connect 39 0 9 0;
#X connect 40 0 41 0;
#X connect 41 0 39 0;
#X connect 42 0 19 0;
#X connect 43 0 11 0;
#X connect 44 0 2 1;
#X restore 88 157 pd strong-tom;
#X obj 87 208 throw~ master;
#X obj 86 186 *~ 0.3;
#X obj 88 134 bng 15 250 50 0 empty empty empty 17 7 0 10 -262144 -1
-1;
#X msg 164 136 1;
#X obj 164 115 loadbang;
#N canvas 260 51 1002 761 ding-3 0;
#X obj 103 65 inlet;
#X obj 175 417 outlet~;
#X obj 177 304 *~;
#X obj 279 109 bng 15 250 50 0 empty empty empty 17 7 0 10 -262144
-1 -1;
#X obj 279 174 line~;
#X obj 279 234 +~;
#X obj 223 265 noise~;
#X obj 225 290 *~;
#X obj 177 326 +~;
#X obj 284 297 expr~ pow($v1 \, 100);
#X obj 160 140 phasor~ 4000;
#X obj 188 185 phasor~ 9001;
#X obj 360 249 sig~ 0;
#X obj 177 161 phasor~ 10000;
#X obj 279 205 expr~ pow($v1 \, 20);
#X obj 198 203 osc~ 10000;
#X obj 208 213 osc~ 50000;
#X obj 431 154 expr~ pow($v1 \, 20);
#X obj 431 176 expr~ $v1 * 40000 + 10000;
#X msg 279 143 1 \, 0 200;
#X obj 176 386 *~ 0.2;
#X obj 177 363 hip~ 10000;
#X connect 0 0 3 0;
#X connect 2 0 8 0;
#X connect 3 0 19 0;
#X connect 4 0 9 0;
#X connect 4 0 14 0;
#X connect 4 0 17 0;
#X connect 5 0 2 1;
#X connect 6 0 7 0;
#X connect 7 0 8 1;
#X connect 8 0 21 0;
#X connect 10 0 2 0;
#X connect 11 0 2 0;
#X connect 12 0 5 1;
#X connect 13 0 2 0;
#X connect 14 0 5 0;
#X connect 15 0 2 0;
#X connect 16 0 2 0;
#X connect 17 0 18 0;
#X connect 18 0 15 0;
#X connect 18 0 13 0;
#X connect 19 0 4 0;
#X connect 20 0 1 0;
#X connect 21 0 20 0;
#X restore 144 300 pd ding-3;
#X obj 141 321 throw~ master;
#X obj 138 281 bng 15 250 50 0 empty empty empty 17 7 0 10 -262144
-1 -1;
#N canvas 0 22 723 669 wong 0;
#X obj 137 44 inlet;
#X obj 180 47 inlet;
#X obj 230 43 inlet;
#X obj 156 287 outlet~;
#X obj 125 82 bng 15 250 50 0 empty empty empty 17 7 0 10 -262144 -1
-1;
#X obj 247 159 line~;
#X obj 371 156 line~;
#X obj 241 221 +~;
#X obj 371 180 expr~ pow($v1 \, 0.5) * 0.02;
#X obj 262 250 expr~ pow($v1 \, 100);
#X obj 144 249 *~ 0.1;
#X obj 241 192 expr~ pow($v1 \, 2);
#X msg 247 128 1 \, 0 10000;
#X msg 371 126 1 \, 0 30000;
#N canvas 160 79 810 370 noise-gen-3 0;
#X obj 56 103 random 800;
#X obj 18 124 + 100;
#X obj 56 147 *~ 0.7;
#X obj 56 169 osc~;
#X obj 130 104 random 800;
#X obj 92 125 + 100;
#X obj 130 148 *~ 0.7;
#X obj 130 170 osc~;
#X obj 202 104 random 800;
#X obj 165 124 + 100;
#X obj 202 148 *~ 0.7;
#X obj 202 170 osc~;
#X obj 274 103 random 800;
#X obj 237 125 + 100;
#X obj 274 148 *~ 0.7;
#X obj 274 170 osc~;
#X obj 56 191 /~ 2;
#X obj 56 258 *~;
#X obj 153 31 inlet;
#X obj 56 280 outlet~;
#X obj 634 228 inlet~;
#X floatatom 56 125 5 0 0 0 - - -, f 5;
#X floatatom 130 126 5 0 0 0 - - -, f 5;
#X floatatom 202 126 5 0 0 0 - - -, f 5;
#X floatatom 274 125 5 0 0 0 - - -, f 5;
#X msg 386 92 172;
#X msg 439 92 658;
#X msg 495 94 80;
#X msg 552 92 76;
#X obj 261 26 inlet;
#X obj 17 67 r n-g-1;
#X obj 93 72 r n-g-2;
#X obj 163 75 r n-g-3;
#X obj 228 79 r n-g-4;
#X obj 386 114 s n-g-1;
#X obj 439 114 s n-g-2;
#X obj 495 114 s n-g-3;
#X obj 552 114 s n-g-4;
#X obj 389 182 s n-g-1;
#X obj 442 182 s n-g-2;
#X obj 498 182 s n-g-3;
#X obj 555 182 s n-g-4;
#X msg 389 160 80;
#X msg 442 160 100;
#X msg 498 162 110;
#X msg 555 160 95;
#X obj 353 25 inlet;
#X connect 0 0 1 0;
#X connect 0 0 21 0;
#X connect 1 0 2 0;
#X connect 2 0 3 0;
#X connect 3 0 16 0;
#X connect 4 0 5 0;
#X connect 4 0 22 0;
#X connect 5 0 6 0;
#X connect 6 0 7 0;
#X connect 7 0 16 0;
#X connect 8 0 9 0;
#X connect 8 0 23 0;
#X connect 9 0 10 0;
#X connect 10 0 11 0;
#X connect 11 0 16 0;
#X connect 12 0 13 0;
#X connect 12 0 24 0;
#X connect 13 0 14 0;
#X connect 14 0 15 0;
#X connect 15 0 16 0;
#X connect 16 0 17 0;
#X connect 17 0 19 0;
#X connect 18 0 0 0;
#X connect 18 0 4 0;
#X connect 18 0 8 0;
#X connect 18 0 12 0;
#X connect 20 0 17 1;
#X connect 25 0 34 0;
#X connect 26 0 35 0;
#X connect 27 0 36 0;
#X connect 28 0 37 0;
#X connect 29 0 25 0;
#X connect 29 0 26 0;
#X connect 29 0 27 0;
#X connect 29 0 28 0;
#X connect 30 0 1 0;
#X connect 31 0 5 0;
#X connect 32 0 9 0;
#X connect 33 0 13 0;
#X connect 42 0 38 0;
#X connect 43 0 39 0;
#X connect 44 0 40 0;
#X connect 45 0 41 0;
#X connect 46 0 42 0;
#X connect 46 0 43 0;
#X connect 46 0 44 0;
#X connect 46 0 45 0;
#X restore 144 218 pd noise-gen-3;
#X obj 166 111 bng 15 250 50 0 empty empty empty 17 7 0 10 -262144
-1 -1;
#X obj 82 150 bng 15 250 50 0 empty empty empty 17 7 0 10 -262144 -1
-1;
#X connect 0 0 16 0;
#X connect 1 0 4 0;
#X connect 2 0 15 0;
#X connect 4 0 12 0;
#X connect 4 0 13 0;
#X connect 4 0 14 1;
#X connect 5 0 9 0;
#X connect 5 0 11 0;
#X connect 6 0 8 0;
#X connect 7 0 14 3;
#X connect 8 0 7 1;
#X connect 10 0 3 0;
#X connect 11 0 7 0;
#X connect 12 0 5 0;
#X connect 13 0 6 0;
#X connect 14 0 10 0;
#X connect 15 0 12 0;
#X connect 15 0 13 0;
#X connect 15 0 14 2;
#X connect 16 0 14 0;
#X connect 16 0 12 0;
#X connect 16 0 13 0;
#X restore 249 165 pd wong;
#X obj 248 187 throw~ master;
#X obj 15 37 r~ sig_8th;
#X obj 15 86 unsig~ 1;
#X obj 15 137 change;
#X obj 15 183 % 12;
#X floatatom 15 159 5 0 0 0 - - -, f 5;
#X obj 15 59 expr~ floor($v1 * 288);
#X obj 163 17 r key;
#X obj 163 39 sel 65;
#X obj 163 61 tgl 15 0 empty empty empty 17 7 0 10 -262144 -1 -1 0
1;
#X obj 15 108 spigot;
#X obj 166 254 sel 0;
#X obj 234 319 perk-snare;
#X obj 234 481 throw~ master;
#X obj 15 205 sel 0 6;
#X obj 166 232 % 3;
#X obj 217 263 % 24;
#X obj 217 285 sel 0;
#X obj 234 459 *~ 0.2;
#X obj 258 49 r key;
#X obj 257 71 sel 83;
#X connect 0 0 1 0;
#X connect 1 0 2 0;
#X connect 3 0 5 0;
#X connect 5 0 4 0;
#X connect 6 0 3 0;
#X connect 6 0 12 1;
#X connect 7 0 3 1;
#X connect 8 0 7 0;
#X connect 9 0 10 0;
#X connect 11 0 9 0;
#X connect 12 0 13 0;
#X connect 14 0 19 0;
#X connect 15 0 23 0;
#X connect 16 0 17 0;
#X connect 16 0 18 0;
#X connect 17 0 27 0;
#X connect 17 0 28 0;
#X connect 18 0 17 0;
#X connect 18 0 29 0;
#X connect 19 0 15 0;
#X connect 20 0 21 0;
#X connect 21 0 22 0;
#X connect 22 0 23 1;
#X connect 23 0 16 0;
#X connect 24 0 11 0;
#X connect 25 0 31 0;
#X connect 27 0 6 0;
#X connect 28 0 24 0;
#X connect 29 0 30 0;
#X connect 30 0 25 0;
#X connect 31 0 26 0;
#X connect 32 0 33 0;
#X connect 33 0 6 0;
#X restore 29 360 pd drum-set;
#X obj 69 141 r key;
#X obj 689 130 bng 15 250 50 0 empty empty empty 17 7 0 10 -262144
-1 -1;
#X obj 690 179 throw~ master;
#N canvas 0 22 1002 761 ding 0;
#X obj 103 65 inlet;
#X obj 175 417 outlet~;
#X obj 177 162 osc~ 10000;
#X obj 177 304 *~;
#X obj 279 109 bng 15 250 50 0 empty empty empty 17 7 0 10 -262144
-1 -1;
#X obj 177 363 hip~ 2000;
#X obj 279 174 line~;
#X obj 279 205 expr~ pow($v1 \, 10);
#X obj 188 184 osc~ 8000;
#X obj 199 203 osc~ 20000;
#X obj 403 171 line~;
#X obj 279 234 +~;
#X obj 403 195 expr~ pow($v1 \, 0.5) * 0.02;
#X obj 176 386 *~ 0.3;
#X msg 279 143 1 \, 0 500;
#X obj 223 265 noise~;
#X obj 225 290 *~;
#X obj 177 326 +~;
#X obj 284 297 expr~ pow($v1 \, 100);
#X msg 403 141 1 \, 0 6000;
#X connect 0 0 4 0;
#X connect 2 0 3 0;
#X connect 3 0 17 0;
#X connect 4 0 14 0;
#X connect 4 0 19 0;
#X connect 5 0 13 0;
#X connect 6 0 7 0;
#X connect 6 0 18 0;
#X connect 7 0 11 0;
#X connect 8 0 3 0;
#X connect 9 0 3 0;
#X connect 10 0 12 0;
#X connect 11 0 3 1;
#X connect 12 0 11 1;
#X connect 13 0 1 0;
#X connect 14 0 6 0;
#X connect 15 0 16 0;
#X connect 16 0 17 1;
#X connect 17 0 5 0;
#X connect 19 0 10 0;
#X restore 690 153 pd ding;
#X msg 144 308 0;
#X msg 642 318 send /bb \$1;
#X obj 10 73 tgl 15 0 empty empty empty 17 7 0 10 -262144 -1 -1 0 1
;
#X msg 163 168 1;
#X msg 65 221 1;
#X msg 173 178 0;
#X obj 69 163 sel 83 68 70;
#X obj 208 175 bng 15 250 50 0 empty empty empty 17 7 0 10 -262144
-1 -1;
#X obj 33 488 r key;
#X obj 33 510 spigot;
#X obj 83 489 tgl 15 0 empty empty empty 17 7 0 10 -262144 -1 -1 1
1;
#X obj 33 532 sel 49 50 51 52 53 54 55 56 57 58;
#X obj 33 554 s b-1;
#X obj 52 573 s b-2;
#X obj 72 592 s b-3;
#X obj 91 611 s b-4;
#X obj 111 563 s b-5;
#X obj 130 582 s b-6;
#X obj 150 601 s b-7;
#X obj 169 620 s b-8;
#X obj 189 566 s b-9;
#X obj 208 585 s b-10;
#X msg 384 505 83;
#X msg 364 557 68;
#X msg 373 531 1;
#N canvas 788 305 775 614 ns 0;
#X obj 192 463 outlet~;
#X obj 183 234 noise~;
#X obj 183 257 lop~ 2000;
#X obj 183 300 *~;
#X obj 249 284 tgl 15 0 empty empty empty 17 7 0 10 -262144 -1 -1 0
1;
#X obj 249 219 f;
#X obj 264 195 random 128;
#X obj 249 132 r hh_count;
#X obj 249 154 change;
#X obj 249 176 bng 15 250 50 0 empty empty empty 17 7 0 10 -262144
-1 -1;
#X floatatom 249 241 5 0 0 0 - - -, f 5;
#X obj 249 260 expr if ($f1 > $f2 \, 1 \, 0);
#X obj 183 279 *~ 0.04;
#X obj 275 305 sel 1;
#X msg 275 350 send /ns 1;
#X msg 303 327 send /ns 0;
#X obj 275 375 s osc-sig;
#X obj 275 285 change;
#X obj 390 356 f;
#X obj 390 313 bng 15 250 50 0 /ns empty empty 17 7 0 10 -262144 -1
-1;
#X obj 405 332 random 100;
#X floatatom 390 378 5 0 0 0 - - -, f 5;
#X obj 390 445 s noise-off;
#X msg 474 444 send /octa 1;
#X obj 474 489 s osc-sig;
#X obj 390 419 sel 1;
#X obj 390 396 expr if ($f1 < 20 \, 1 \, 0);
#X obj 88 197 inlet;
#X obj 88 219 tgl 15 0 empty empty empty 17 7 0 10 -262144 -1 -1 0
1;
#X obj 170 377 *~;
#X obj 406 102 inlet;
#X obj 456 190 loadbang;
#X msg 456 211 126;
#X obj 297 234 expr if ($f1 == 1 \, 64 \, $f2);
#X obj 353 102 inlet;
#X msg 353 124 1;
#X obj 591 115 inlet;
#X obj 591 176 tgl 15 0 empty empty empty 17 7 0 10 -262144 -1 -1 0
1;
#X obj 473 467 spigot;
#X connect 1 0 2 0;
#X connect 2 0 12 0;
#X connect 3 0 29 0;
#X connect 4 0 3 1;
#X connect 4 0 17 0;
#X connect 4 0 33 0;
#X connect 5 0 10 0;
#X connect 6 0 5 1;
#X connect 7 0 8 0;
#X connect 8 0 9 0;
#X connect 9 0 5 0;
#X connect 9 0 6 0;
#X connect 10 0 11 0;
#X connect 11 0 4 0;
#X connect 12 0 3 0;
#X connect 13 0 14 0;
#X connect 13 1 15 0;
#X connect 13 1 19 0;
#X connect 14 0 16 0;
#X connect 15 0 16 0;
#X connect 17 0 13 0;
#X connect 18 0 21 0;
#X connect 19 0 18 0;
#X connect 19 0 20 0;
#X connect 20 0 18 1;
#X connect 21 0 26 0;
#X connect 23 0 38 0;
#X connect 25 0 22 0;
#X connect 25 0 23 0;
#X connect 26 0 25 0;
#X connect 27 0 28 0;
#X connect 28 0 29 1;
#X connect 29 0 0 0;
#X connect 30 0 33 1;
#X connect 31 0 32 0;
#X connect 32 0 33 1;
#X connect 33 0 11 1;
#X connect 34 0 35 0;
#X connect 35 0 4 0;
#X connect 36 0 37 0;
#X connect 37 0 38 1;
#X connect 38 0 24 0;
#X restore 131 268 pd ns;
#X obj 426 483 r b-4;
#X obj 384 483 r b-3;
#X obj 338 482 r b-2;
#X obj 296 485 r b-1;
#X obj 27 457 expr pow($f1 \, 8);
#X msg 32 406 0 \, 1 10000;
#X obj 263 229 tgl 15 0 empty empty empty 17 7 0 10 -262144 -1 -1 0
1;
#X obj 153 222 tgl 15 0 empty empty empty 17 7 0 10 -262144 -1 -1 0
1;
#X obj 463 542 del 2000;
#X msg 463 564 1;
#X obj 426 505 t b b b;
#X obj 426 527 del 3000;
#X msg 296 507 1;
#X connect 2 0 1 0;
#X connect 2 0 1 1;
#X connect 2 0 3 0;
#X connect 4 0 91 0;
#X connect 5 0 93 0;
#X connect 6 0 95 0;
#X connect 7 0 20 0;
#X connect 8 0 7 0;
#X connect 8 0 81 0;
#X connect 10 0 46 0;
#X connect 11 0 128 0;
#X connect 12 0 10 0;
#X connect 15 0 14 0;
#X connect 17 0 134 0;
#X connect 18 0 133 0;
#X connect 19 0 94 0;
#X connect 20 0 9 0;
#X connect 21 0 22 0;
#X connect 22 0 88 0;
#X connect 22 0 97 0;
#X connect 23 0 37 0;
#X connect 25 0 24 0;
#X connect 26 0 90 0;
#X connect 28 0 29 0;
#X connect 28 0 30 0;
#X connect 29 0 26 0;
#X connect 29 0 104 0;
#X connect 30 0 39 0;
#X connect 31 0 33 0;
#X connect 32 0 28 0;
#X connect 33 0 32 0;
#X connect 33 0 34 0;
#X connect 34 0 23 1;
#X connect 35 0 36 0;
#X connect 35 0 50 0;
#X connect 36 0 37 1;
#X connect 36 0 41 1;
#X connect 36 0 90 1;
#X connect 37 0 25 0;
#X connect 38 0 36 0;
#X connect 39 0 40 0;
#X connect 40 0 41 0;
#X connect 40 0 100 0;
#X connect 40 0 103 0;
#X connect 41 0 45 0;
#X connect 41 0 43 0;
#X connect 42 0 44 0;
#X connect 43 0 42 0;
#X connect 45 0 35 0;
#X connect 46 0 47 0;
#X connect 48 0 46 1;
#X connect 49 0 50 1;
#X connect 50 0 31 0;
#X connect 51 0 53 0;
#X connect 52 0 38 0;
#X connect 53 0 52 0;
#X connect 53 1 49 0;
#X connect 53 3 54 0;
#X connect 54 0 50 0;
#X connect 55 0 64 0;
#X connect 57 0 56 0;
#X connect 58 0 85 0;
#X connect 60 0 61 0;
#X connect 60 0 62 0;
#X connect 61 0 58 0;
#X connect 62 0 65 0;
#X connect 63 0 55 1;
#X connect 64 0 57 0;
#X connect 65 0 79 0;
#X connect 66 0 86 0;
#X connect 66 0 87 0;
#X connect 67 0 68 1;
#X connect 68 0 73 0;
#X connect 69 0 71 0;
#X connect 70 0 76 0;
#X connect 71 0 70 0;
#X connect 71 1 67 0;
#X connect 71 3 72 0;
#X connect 72 0 68 0;
#X connect 73 0 74 0;
#X connect 74 0 63 0;
#X connect 74 0 75 0;
#X connect 75 0 60 0;
#X connect 76 0 78 0;
#X connect 76 0 85 1;
#X connect 77 0 68 0;
#X connect 77 0 78 0;
#X connect 78 0 64 1;
#X connect 78 0 66 1;
#X connect 79 0 66 0;
#X connect 81 0 80 0;
#X connect 82 0 84 0;
#X connect 83 0 81 0;
#X connect 84 0 83 0;
#X connect 85 0 55 0;
#X connect 86 0 77 0;
#X connect 87 0 85 1;
#X connect 90 0 23 0;
#X connect 91 0 46 0;
#X connect 92 0 91 1;
#X connect 93 0 46 0;
#X connect 94 0 93 1;
#X connect 95 0 46 0;
#X connect 96 0 95 1;
#X connect 96 0 6 0;
#X connect 97 0 8 0;
#X connect 97 1 43 0;
#X connect 97 2 51 0;
#X connect 99 0 109 0;
#X connect 100 0 102 0;
#X connect 102 0 101 0;
#X connect 103 0 48 0;
#X connect 104 0 89 0;
#X connect 105 0 13 0;
#X connect 106 0 96 0;
#X connect 106 0 92 0;
#X connect 106 0 11 0;
#X connect 106 0 12 0;
#X connect 106 0 94 0;
#X connect 107 0 94 0;
#X connect 108 0 96 0;
#X connect 108 0 92 0;
#X connect 108 0 11 0;
#X connect 108 0 12 0;
#X connect 108 0 94 0;
#X connect 109 0 107 0;
#X connect 109 1 106 0;
#X connect 109 2 108 0;
#X connect 110 0 128 1;
#X connect 111 0 112 0;
#X connect 112 0 114 0;
#X connect 113 0 112 1;
#X connect 114 0 115 0;
#X connect 114 1 116 0;
#X connect 114 2 117 0;
#X connect 114 3 118 0;
#X connect 114 4 119 0;
#X connect 114 5 120 0;
#X connect 114 6 121 0;
#X connect 114 7 122 0;
#X connect 114 8 123 0;
#X connect 114 9 124 0;
#X connect 125 0 88 0;
#X connect 126 0 88 0;
#X connect 127 0 96 0;
#X connect 128 0 46 0;
#X connect 129 0 139 0;
#X connect 130 0 125 0;
#X connect 130 0 127 0;
#X connect 130 0 126 0;
#X connect 131 0 96 0;
#X connect 132 0 17 0;
#X connect 132 0 141 0;
#X connect 133 0 19 0;
#X connect 134 0 18 0;
#X connect 135 0 10 1;
#X connect 136 0 128 3;
#X connect 137 0 138 0;
#X connect 138 0 43 0;
#X connect 139 0 140 0;
#X connect 139 1 137 0;
#X connect 139 2 8 0;
#X connect 140 0 51 0;
#X connect 141 0 48 0;
